/* XPM */
static char *result[] = {
/* columns rows colors chars-per-pixel */
"32 32 156 2 ",
"   c black",
".  c #000001",
"X  c #000101",
"o  c #000102",
"O  c #000103",
"+  c #000104",
"@  c #000204",
"#  c #000205",
"$  c #000206",
"%  c #000307",
"&  c #000308",
"*  c #000309",
"=  c #000409",
"-  c #00040A",
";  c #00040B",
":  c #00040C",
">  c #00050C",
",  c #00050D",
"<  c #00050E",
"1  c #00050F",
"2  c #00060F",
"3  c #000610",
"4  c #000611",
"5  c #000712",
"6  c #000714",
"7  c #000816",
"8  c #000917",
"9  c #000918",
"0  c #000919",
"q  c #000A1A",
"w  c #000A1B",
"e  c #000A1C",
"r  c #000B1C",
"t  c #000B1D",
"y  c #000B1E",
"u  c #000C20",
"i  c #000C21",
"p  c #000D21",
"a  c #000D22",
"s  c #000D23",
"d  c #000D24",
"f  c #000E24",
"g  c #000E25",
"h  c #000E26",
"j  c #00102B",
"k  c #00112D",
"l  c #00112E",
"z  c #001230",
"x  c #001231",
"c  c #001332",
"v  c #001333",
"b  c #001435",
"n  c #001436",
"m  c #001538",
"M  c #00163B",
"N  c #00173D",
"B  c #00173E",
"V  c #00173F",
"C  c #00183F",
"Z  c #001840",
"A  c #001841",
"S  c #001941",
"D  c #001A45",
"F  c #001A46",
"G  c #001B48",
"H  c #001B49",
"J  c #001C4B",
"K  c #001C4C",
"L  c #001D4C",
"P  c #001E4F",
"I  c #001E50",
"U  c #001E51",
"Y  c #001F52",
"T  c #001F53",
"R  c #002159",
"E  c #00225A",
"W  c #00225B",
"Q  c #00225C",
"!  c #00235C",
"~  c #00235E",
"^  c #002460",
"/  c #002563",
"(  c #002564",
")  c #002664",
"_  c #002769",
"`  c #00286A",
"'  c #00296D",
"]  c #002A6F",
"[  c #002C76",
"{  c #002D78",
"}  c #003691",
"|  c #003792",
" . c #003A9A",
".. c #003A9B",
"X. c #003A9C",
"o. c #003B9D",
"O. c #003C9F",
"+. c #003DA2",
"@. c #003DA4",
"#. c #003EA5",
"$. c #003FA7",
"%. c #0040A9",
"&. c #0040AB",
"*. c #0041AC",
"=. c #0041AD",
"-. c #0041AE",
";. c #0043B2",
":. c #0043B4",
">. c #0044B5",
",. c #0045B8",
"<. c #0045B9",
"1. c #0046BA",
"2. c #0047BD",
"3. c #0047BE",
"4. c #0049C2",
"5. c #0049C3",
"6. c #004AC6",
"7. c #004BC8",
"8. c #004BC9",
"9. c #004CC9",
"0. c #004CCB",
"q. c #004CCC",
"w. c #004DCC",
"e. c #004DCE",
"r. c #004ECF",
"t. c #004FD2",
"y. c #004FD3",
"u. c #004FD4",
"i. c #0050D5",
"p. c #0050D6",
"a. c #0051D7",
"s. c #0051D8",
"d. c #0051D9",
"f. c #0053DC",
"g. c #0053DF",
"h. c #0054E1",
"j. c #0055E2",
"k. c #0056E5",
"l. c #0056E6",
"z. c #0057E7",
"x. c #0057E8",
"c. c #0057E9",
"v. c #0058EB",
"b. c #0058EC",
"n. c #0059EC",
"m. c #0059EE",
"M. c #005AF0",
"N. c #005BF2",
"B. c #005BF3",
"V. c #005CF6",
"C. c #005DF7",
"Z. c #005FFE",
"A. c #0060FF",
"S. c #0061FF",
"D. c #0067FF",
"F. c #006DFF",
/* pixels */
"                              O 2 O           r 4.F.D.N.V.S.A.Z.",
"                        O > 1       j P K b c W ..5.4.<.1.3.2.2.",
"              . .       O 0 t     ,  .z.a.0.a.*.U i c G D N B Z ",
"            .     o % +         u ` ,.p.t.h.n.$.d               ",
"          . o     o ; :       y =.8.' h m ~ Q N 6               ",
"        .     # >       n N l ` 6.-.s             : M T P G H J ",
"      . o     = 9     & | B.v.#.Q h +             q +.M.k.w.r.p.",
"    .     # =       i ) &.b.V.O.8     7 A R E V z ! *.f.i.6.7.q.",
"    .     > 9     7 %.9.` j Z P t     w #.m.j.u.d.;.^ x m F D A ",
"      o o       7 { e.&.p         . a ( :.y.8.s.l.o.5           ",
"      % ;     i %.e.[ q           f -.7.] g l I I k             ",
"      + :   & ) 9.&.q     h Y C j _ 7.*.w           X 5 3 ; : , ",
"  O O     n | &.` p       s @.B.v.&./ s             . - * $ $ % ",
"  > 0     N B.b.j     h s A X.M.V.} &     e 7 & > -             ",
"  1 t     l v.V.Z     Y @.X.W n S v       < ; # % $ .           ",
"        y ` #.O.P     C B.M.n       < - o                       ",
"      u =.6.Q 8 t     j v.V.S     o ; @ o                       ",
"    , ` 8.-.h     . f _ &.} v   o 4 @     . .                   ",
"  j  .,.' s +     a -.7./ &   < ; @ .                           ",
"$ P z.p.h     7 w ( 7.*.s     - @     .                         ",
"= K a.t.m     A #.:.] w       o o                               ",
"  b 0.h.~     R m.y.g     e <     .                             ",
"  c a.n.Q     E j.8.l     7 ;     .                             ",
"v W *.$.N     V u.s.I     & #                                   ",
">...U d 6     z d.l.I     > %                                   ",
"S.5.i     : q ! ;.o.k     - $                                   ",
"C.4.c     M +.*.^ 5   X .   .                                   ",
"g.<.G     T M.f.x     5 -                                       ",
"j.1.D     P k.i.m     3 *                                       ",
"b.3.N     G w.6.F     ; $                                       ",
"c.2.B     H r.7.D     : $                                       ",
"x.2.Z     L d.e.V     < &                                       "
};
