/* XPM */
static char *f219f65b10134008e33b93d6aa81af8devOr9uC5m6F6K1oV[] = {
/* columns rows colors chars-per-pixel */
"32 32 10 1 ",
"  c black",
". c #000307",
"X c #00050D",
"o c #001840",
"O c #001841",
"+ c #001C4B",
"@ c #0047BD",
"# c #004CCC",
"$ c #0050D6",
"% c #0057E8",
/* pixels */
"%@o  +$#o  X.                   ",
"%@o  +$#o  X.                   ",
"%@o  +$#o  X.                   ",
"%@o  +$#o  X.                   ",
"%@o  +$#o  X.                   ",
"%@o  +$#o  X.                   ",
"%@o  +$#o  X.                   ",
"%@o  +$#o  X.                   ",
"%@o  +$#o  X.                   ",
"%@o  +$#o  X.                   ",
"%@o  +$#o  X.                   ",
"%@o  +$#o  X.                   ",
"%@o  +$#o  X.                   ",
"%@o  +$#o  X.                   ",
"%@o  +$#o  X.                   ",
"%@o  +$#o  X.                   ",
"%@o  +$#o  X.                   ",
"%@o  +$#o  X.                   ",
"%@o  +$#o  X.                   ",
"%@o  +$#o  X.                   ",
"%@o  +$#o  X.                   ",
"%@o  +$#o  X.                   ",
"%@o  +$#o  X.                   ",
"%@o  +$#o  X.                   ",
"%@o  +$#o  X.                   ",
"%@o  +$#o  X.                   ",
"%@o  +$#o  X.                   ",
"%@o  +$#o  X.                   ",
"%@o  +$#o  X.                   ",
"%@o  +$#o  X.                   ",
"%@o  +$#o  X.                   ",
"%@o  +$#o  X.                   "
};
