/* XPM */
static char *e38ffbc3197e4cada190faacbb05038e4SM0IVB3H8Z5VSyj[] = {
/* columns rows colors chars-per-pixel */
"32 32 184 2 ",
"   c black",
".  c #000001",
"X  c #000101",
"o  c #000102",
"O  c #000103",
"+  c #000104",
"@  c #000204",
"#  c #000205",
"$  c #000206",
"%  c #000207",
"&  c #000307",
"*  c #000308",
"=  c #000309",
"-  c #000409",
";  c #00040A",
":  c #00040B",
">  c #00040C",
",  c #00050C",
"<  c #00050D",
"1  c #00050E",
"2  c #00050F",
"3  c #00060F",
"4  c #000610",
"5  c #000712",
"6  c #000713",
"7  c #000714",
"8  c #000814",
"9  c #000816",
"0  c #000917",
"q  c #000918",
"w  c #000919",
"e  c #000A1A",
"r  c #000A1B",
"t  c #000A1C",
"y  c #000B1C",
"u  c #000B1D",
"i  c #000B1E",
"p  c #000C1F",
"a  c #000C20",
"s  c #000C21",
"d  c #000D22",
"f  c #000D23",
"g  c #000D24",
"h  c #000E24",
"j  c #000E25",
"k  c #000E26",
"l  c #000F27",
"z  c #000F28",
"x  c #000F29",
"c  c #00102B",
"v  c #00112C",
"b  c #00112D",
"n  c #00112E",
"m  c #001230",
"M  c #001231",
"N  c #001332",
"B  c #001333",
"V  c #001334",
"C  c #001435",
"Z  c #001436",
"A  c #001437",
"S  c #001537",
"D  c #001538",
"F  c #001539",
"G  c #00163B",
"H  c #00173C",
"J  c #00173D",
"K  c #00173E",
"L  c #00173F",
"P  c #00183F",
"I  c #001840",
"U  c #001841",
"Y  c #001943",
"T  c #001A45",
"R  c #001A46",
"E  c #001B48",
"W  c #001B49",
"Q  c #001C4B",
"!  c #001C4C",
"~  c #001D4C",
"^  c #001D4E",
"/  c #001E4F",
"(  c #001E50",
")  c #001E51",
"_  c #001F52",
"`  c #001F53",
"'  c #002056",
"]  c #002157",
"[  c #002159",
"{  c #00225A",
"}  c #00225B",
"|  c #00225C",
" . c #00235C",
".. c #00235E",
"X. c #002460",
"o. c #002461",
"O. c #002563",
"+. c #002564",
"@. c #002666",
"#. c #002768",
"$. c #002769",
"%. c #00286A",
"&. c #00286C",
"*. c #00296D",
"=. c #002A6F",
"-. c #003793",
";. c #003794",
":. c #003997",
">. c #003A9A",
",. c #003A9B",
"<. c #003B9D",
"1. c #003C9F",
"2. c #003DA2",
"3. c #003DA3",
"4. c #003EA5",
"5. c #003FA7",
"6. c #003FA9",
"7. c #0040AA",
"8. c #0040AB",
"9. c #0040AC",
"0. c #0041AC",
"q. c #0041AD",
"w. c #0041AE",
"e. c #0043B2",
"r. c #0043B3",
"t. c #0043B4",
"y. c #0044B4",
"u. c #0044B5",
"i. c #0045B7",
"p. c #0045B8",
"a. c #0045B9",
"s. c #0046BA",
"d. c #0046BB",
"f. c #0047BD",
"g. c #0047BE",
"h. c #0049C2",
"j. c #0049C3",
"k. c #0049C4",
"l. c #004AC6",
"z. c #004BC7",
"x. c #004BC8",
"c. c #004BC9",
"v. c #004CCB",
"b. c #004CCC",
"n. c #004DCC",
"m. c #004DCD",
"M. c #004DCE",
"N. c #004ECF",
"B. c #004FD2",
"V. c #004FD3",
"C. c #004FD4",
"Z. c #0050D5",
"A. c #0050D6",
"S. c #0051D7",
"D. c #0051D8",
"F. c #0051D9",
"G. c #0052DA",
"H. c #0053DC",
"J. c #0053DF",
"K. c #0054E0",
"L. c #0054E1",
"P. c #0055E2",
"I. c #0056E5",
"U. c #0056E6",
"Y. c #0057E7",
"T. c #0057E8",
"R. c #0057E9",
"E. c #0058EB",
"W. c #0058EC",
"Q. c #0059EC",
"!. c #0059ED",
"~. c #0059EE",
"^. c #005AF0",
"/. c #005BF2",
"(. c #005BF3",
"). c #005CF6",
"_. c #005CF7",
"`. c #005DF7",
"'. c #005DF8",
"]. c #005FFE",
"[. c #0060FF",
"{. c #0061FF",
"}. c #0067FF",
"|. c #006DFF",
/* pixels */
"T.f.I     / F.n.K     > *                                       ",
"T.f.K     E n.x.T     > $                                       ",
"W.f.K     E n.l.T     : $                                       ",
"P.s.T     / I.Z.G     4 *                                       ",
"J.s.E     ) ^.J.N     4 :                                       ",
"`.h.N     G 2.0.X.4                                             ",
"{.h.s     > e  .e.<.b     : $                                   ",
"u.,.) g 7     N F.I.)     > $                                   ",
"N [ 0.4.K     K C.F.)     * $                                   ",
"  N Z.W. .    [ P.x.b     9 :                                   ",
"  Z v.P. .    [ W.V.g     t >                                   ",
": / Z.V.G     I 4.t.=.e                                         ",
"$ / I.Z.g     9 e +.x.0.s     : $                               ",
"  c ,.s.=.s $     s 0.l.X.*   > $                               ",
"    > %.x.0.g       g #.7.-.Z                                   ",
"      s 0.l. .9 t     b W.^.K     t 4                           ",
"        t %.4.1./     I `.E.b     g e                           ",
"  > t     b E.`.I     E <.4.#.t           * * $ $ $             ",
"  > e     K ^.W.b     4 4 [ h.7.t       : > > > > :             ",
"          Z ;.6.+.x >     b u.n.=.b G G               : * $ $ $ ",
"      $ :   : X.l.u.Z     9 G #.7.I.^.:.>             4 4 : > > ",
"      * >     g e.s.G           -.].^.2.[ N Z / / b             ",
"        $     $ Z K 7           Z ) G ' 0.Z.n.Z.I.<.4           ",
"          $ >         > b / [ Z       s 6.E.P.Z.F.e.X.N G T T I ",
"            $ $       x :.'.{.-.      e I ' [ P N  .0.J.Z.l.x.n.",
"              $ 4     x <.W.I.0.=.V *             e 2.^.I.n.n.Z.",
"                *     4 K G c =.n.u.g             > G ) / E E Q ",
"                              t 6.l.=.g G  .[ K 7               ",
"                                p #.s.Z.V.P.W.4.g               ",
"                        $ e t     > ,.I.Z.v.Z.0.) s N E T K K I ",
"                          > >       c / / Z N [ ,.h.h.s.s.f.f.f.",
"                                >             t h.|.}.^.`.{.{.]."
};
