/* XPM */
static char *a37e1fb7333e413eb64ea6714952ce8c4A0rQVz0z5U992yJ[] = {
/* columns rows colors chars-per-pixel */
"32 32 186 2 ",
"   c black",
".  c #000001",
"X  c #000101",
"o  c #000102",
"O  c #000103",
"+  c #000104",
"@  c #000205",
"#  c #000206",
"$  c #000207",
"%  c #000307",
"&  c #000308",
"*  c #000309",
"=  c #000409",
"-  c #00040A",
";  c #00040B",
":  c #00040C",
">  c #00050C",
",  c #00050D",
"<  c #00050E",
"1  c #00050F",
"2  c #00060F",
"3  c #000610",
"4  c #000712",
"5  c #000713",
"6  c #000714",
"7  c #000816",
"8  c #000817",
"9  c #000917",
"0  c #000918",
"q  c #000919",
"w  c #000A19",
"e  c #000A1A",
"r  c #000A1B",
"t  c #000A1C",
"y  c #000B1C",
"u  c #000B1D",
"i  c #000B1E",
"p  c #000C1F",
"a  c #000C20",
"s  c #000C21",
"d  c #000D21",
"f  c #000D22",
"g  c #000D23",
"h  c #000D24",
"j  c #000E24",
"k  c #000E25",
"l  c #000E26",
"z  c #00102B",
"x  c #00102C",
"c  c #00112D",
"v  c #00112E",
"b  c #00112F",
"n  c #00122F",
"m  c #001230",
"M  c #001231",
"N  c #001332",
"B  c #001333",
"V  c #001434",
"C  c #001435",
"Z  c #001436",
"A  c #001538",
"S  c #001539",
"D  c #00163A",
"F  c #00163B",
"G  c #00173C",
"H  c #00173D",
"J  c #00173E",
"K  c #00173F",
"L  c #00183F",
"P  c #001840",
"I  c #001841",
"U  c #001943",
"Y  c #001A45",
"T  c #001A46",
"R  c #001B47",
"E  c #001B48",
"W  c #001B49",
"Q  c #001C4B",
"!  c #001C4C",
"~  c #001D4C",
"^  c #001D4E",
"/  c #001E4F",
"(  c #001E50",
")  c #001E51",
"_  c #001F53",
"`  c #002056",
"'  c #002157",
"]  c #002159",
"[  c #00225A",
"{  c #00225B",
"}  c #00225C",
"|  c #00235C",
" . c #00235E",
".. c #002460",
"X. c #002563",
"o. c #002564",
"O. c #002664",
"+. c #002767",
"@. c #002768",
"#. c #002769",
"$. c #00286A",
"%. c #00286B",
"&. c #00286C",
"*. c #00296C",
"=. c #00296D",
"-. c #002A6F",
";. c #002B73",
":. c #002D78",
">. c #003792",
",. c #003793",
"<. c #003895",
"1. c #003997",
"2. c #003A9A",
"3. c #003A9B",
"4. c #003B9D",
"5. c #003C9F",
"6. c #003DA2",
"7. c #003DA3",
"8. c #003DA4",
"9. c #003EA5",
"0. c #003FA7",
"q. c #003FA9",
"w. c #0040A9",
"e. c #0040AA",
"r. c #0040AB",
"t. c #0040AC",
"y. c #0041AC",
"u. c #0041AD",
"i. c #0041AE",
"p. c #0043B2",
"a. c #0043B4",
"s. c #0044B5",
"d. c #0045B8",
"f. c #0045B9",
"g. c #0046BA",
"h. c #0047BD",
"j. c #0047BE",
"k. c #0048C1",
"l. c #0049C2",
"z. c #0049C3",
"x. c #004AC6",
"c. c #004BC7",
"v. c #004BC8",
"b. c #004BC9",
"n. c #004CC9",
"m. c #004CCB",
"M. c #004CCC",
"N. c #004DCC",
"B. c #004DCD",
"V. c #004DCE",
"C. c #004ECF",
"Z. c #004FD2",
"A. c #004FD3",
"S. c #004FD4",
"D. c #0050D5",
"F. c #0050D6",
"G. c #0051D7",
"H. c #0051D8",
"J. c #0051D9",
"K. c #0052DA",
"L. c #0053DC",
"P. c #0053DF",
"I. c #0054E0",
"U. c #0054E1",
"Y. c #0055E2",
"T. c #0056E5",
"R. c #0056E6",
"E. c #0057E7",
"W. c #0057E8",
"Q. c #0057E9",
"!. c #0058EB",
"~. c #0058EC",
"^. c #0059EC",
"/. c #0059EE",
"(. c #005AF0",
"). c #005BF2",
"_. c #005BF3",
"`. c #005CF6",
"'. c #005DF7",
"]. c #005EFA",
"[. c #005FFD",
"{. c #005FFE",
"}. c #0060FF",
"|. c #0061FF",
" X c #0067FF",
".X c #006DFF",
/* pixels */
"{.}.}.`.(. X.Xl.y             :                                 ",
"h.h.h.g.g.l.l.3.{ m C / / z       : :                           ",
"P H H Y W m s _ y.F.m.F.T.3.:     y e                           ",
"              h 0.^.U.A.F.g.#.p         $ $                     ",
"              6 H { | F h &.x.w.y       - -                     ",
"Q W W / _ F :             h s.M.&.c H C       : $               ",
"F.M.M.T.(.6.e             * C %.w.W.(.,.*     e -               ",
"M.v.x.F.L.y.| m L { ' P e       <.].^.w...s       - $           ",
"P Y Y F m ..p.K.F.U.!.q.s       P Y c o.v.w.7     e :           ",
"          4 4.T.F.M.F.y.' F / H       h y.M.:.7                 ",
"            c / / C m { 6.(.{.<.      $ s ;.M.w.s     - $       ",
": : - 4 4             : <.(.W.w.o.H e     e w.m.o.*   : $       ",
"$ $ $ * -               F F c &.m.g.m       s %.w.,.C           ",
"            - : : : : -       y w.l.' 7 p     z ^.(.H     e :   ",
"            $ $ $ * *           y #.0.5./     P `.!.c     y :   ",
"                          e h     c !.`.P     / 5.0.%.y         ",
"                          4 y     H (.^.c     y 7 | x.y.s       ",
"                                  C ,.w.#.h       h y.v.%.:     ",
"                              $ :   * ..x.y.s     $ s &.g.3.z   ",
"                              $ -     s y.v.o.e 7     h F.T./ $ ",
"                                        e &.a.0.P     F A.F./ - ",
"                                  : y     h A.^.{     | U.m.C   ",
"                                  - 7     c v.U.{     | ^.F.m   ",
"                                  $ *     _ K.S.H     H 0.y.{ m ",
"                                  $ :     _ T.K.m     6 h _ 3.s.",
"                                  $ -     c 4.p.| e :     s l.}.",
"                                            4 ..y.6.F     m l.`.",
"                                      - 4     m L.(._     W g.L.",
"                                      * 4     F F.T./     Y g.U.",
"                                      $ -     Y x.M.W     H h.^.",
"                                      $ :     Y v.M.W     H h.W.",
"                                      * :     H M.K./     P h.W."
};
