/* XPM */
static char *result[] = {
/* columns rows colors chars-per-pixel */
"32 32 105 2 ",
"   c #200A0F",
".  c #220D13",
"X  c #231016",
"o  c #251219",
"O  c #2A1721",
"+  c #271921",
"@  c #2A1923",
"#  c #2F1E2B",
"$  c #2D232E",
"%  c #2E2632",
"&  c #2F2936",
"*  c #2F2E3B",
"=  c #302A37",
"-  c #312E3B",
";  c #30303E",
":  c #323443",
">  c #3F3B46",
",  c #3F344A",
"<  c #363B4C",
"1  c #393A4B",
"2  c #3A3E51",
"3  c #433D46",
"4  c #423E49",
"5  c #3A4255",
"6  c #3D4459",
"7  c #3B4B5F",
"8  c #3D5267",
"9  c #3F546A",
"0  c #45414B",
"q  c #444552",
"w  c #464856",
"e  c #49435F",
"r  c #4A4460",
"t  c #414E65",
"y  c #42546B",
"u  c #4C5B6D",
"i  c #455770",
"p  c #4D5472",
"a  c #485970",
"s  c #505F7E",
"d  c #4C6683",
"f  c #4A6B87",
"g  c #476C89",
"h  c #4A6E8A",
"j  c #516080",
"k  c #506C8B",
"l  c #4B718D",
"z  c #5B6F94",
"x  c #4E7391",
"c  c #4D7895",
"v  c #527595",
"b  c #527798",
"n  c #5A7499",
"m  c #517D9D",
"M  c #5A7EA3",
"N  c #738695",
"B  c #4F82A3",
"V  c #5285A6",
"C  c #5E80A7",
"Z  c #5387A9",
"A  c #558AAC",
"S  c #5D8BAD",
"D  c #568FB1",
"F  c #5C8EB3",
"G  c #5791B4",
"H  c #5994B7",
"J  c #5D96BB",
"K  c #608EAA",
"L  c #6190AE",
"P  c #6396B6",
"I  c #659ABA",
"U  c #7C9CB1",
"Y  c #5E9EC5",
"T  c #609AC2",
"R  c #619FC8",
"E  c #5EA2C9",
"W  c #5FA7D0",
"Q  c #61A5CD",
"!  c #61A7D0",
"~  c #63AAD4",
"^  c #6EAED3",
"/  c #63AED8",
"(  c #6EB0D5",
")  c #64B1DB",
"_  c #75B9DE",
"`  c #69B7E1",
"'  c #72BBE2",
"]  c #87A1B2",
"[  c #89A3B3",
"{  c #80A7BE",
"}  c #81A8BF",
"|  c #8CA8BA",
" . c #81A9C0",
".. c #86B9D5",
"X. c #89BDD9",
"o. c #84C3E4",
"O. c #8ECAE9",
"+. c #9CCEE7",
"@. c #9CCFE8",
"#. c #9FD0E9",
"$. c #A3D3EB",
"%. c #ABD6EB",
"&. c #A3D7F1",
"*. c #ACDBF2",
"=. c None",
/* pixels */
"=.=.=.=.=.=.=.=.=.=.=.=.. . =.=.=.=.=.=.=.=.=.=.=.=.=.=.=.=.=.=.",
"=.=.=.=.=.=.=.=.=.=.=.=.: : =.=.=.=.=.=.=.=.=.=.=.=.=.=.=.=.=.=.",
"=.=.=.=.=.=.=.=.=.=.. 1 l l ; . . . =.=.=.=.=.=.=.=.=.=.=.=.=.=.",
"=.=.=.=.=.=.=.=.=.=.. : A J u > 1 : =.=.=.=.=.=.=.=.=.=.=.=.=.=.",
"=.=.=.=.=.=.=.=.=.=.. 1 V ^ { U S g ;   X X =.=.=.=.=.=.=.=.=.=.",
"=.=.=.=.=.=.=.=.=.=.. : V _ +.#.o.P 9 : : ; =.=.=.=.=.=.=.=.=.=.",
"=.=.=.=.=.=.. . =.=.  : M _ +.$.+...L V V g : X =.=.=.=.=.=.=.=.",
"=.=.=.=.=.=.: : =.=.; y I ' @.%.%.+.o._ _ Z : . =.=.=.=.=.=.=.=.",
"=.=.=.=.X : l g : * g P X.@.$.%.%.%.#.O.' V : . =.=.=.=.=.=.=.=.",
"=.=.=.=.X < L I y 8 G (  .] [ ] ] ] ] U K l 7 : =.=.=.=.=.=.=.=.",
"=.=.=.=.. > U X.P D W J u 3 3 3 4 3 0 > : 7 c x < X =.=.=.=.=.=.",
"=.=.=.=.. 0 | $.o.( H g 2 & - : : ; : ; & 5 x f * X =.=.=.=.=.=.",
"=.=.=.=.. 0 [ *.&.} u < 9 f m V V V V m f y 5 * @ o =.=.=.=.=.=.",
"=.=.=.=.. 4 N | | N q 2 x J ~ ) ) ) ) ! J v 6 $ o o =.=.=.=.=.=.",
"=.=.=.=.=.=.4 0 0 w u v J ! / / ) ) / ~ Q J v t & X =.=.=.=.=.=.",
"=.=.=.=.=.=.. . . & d A J T T F A G E ! Q F v t % o =.=.=.=.=.=.",
"=.=.=.=.=.=.X . . - d M n z z s 5 y D Q M j 2 & @ o =.=.=.=.=.=.",
"=.=.=.=.=.=.o o X - d b p e e , O : V J j , @ . o o =.=.=.=.=.=.",
"=.=.=.=.=.=.=.=.. - d k 1 # # O X : Z S w @ o . o o =.=.=.=.=.=.",
"=.=.=.=.=.=.=.=.. - y i 1 - : : : 9 H H y ; - % O o =.=.=.=.=.=.",
"=.=.=.=.=.=.=.=.=.=.- 1 y k V A V H Q ! G B l y % X =.=.=.=.=.=.",
"=.=.=.=.=.=.=.=.=.=.. % y v J ! ) W D A E P b y = X =.=.=.=.=.=.",
"=.=.=.=.=.=.=.=.=.=.=.=.= 5 v T / G 8 7 b v 5 = =.=.=.=.=.=.=.=.",
"=.=.=.=.=.=.=.=.=.=.=.=.. % y h B f ; % y y = . =.=.=.=.=.=.=.=.",
"=.=.=.=.=.=.=.=.=.=.=.=.=.=.= - : : =.=.= = =.=.=.=.=.=.=.=.=.=.",
"=.=.=.=.=.=.=.=.=.=.=.=.=.=.X X . . =.=.X X =.=.=.=.=.=.=.=.=.=.",
"=.=.=.=.=.=.=.=.=.=.=.=.=.=.=.=.=.=.=.=.=.=.=.=.=.=.=.=.=.=.=.=.",
"=.=.=.=.=.=.=.=.=.=.=.=.=.=.=.=.=.=.=.=.=.=.=.=.=.=.=.=.=.=.=.=.",
"=.=.=.=.=.=.=.=.=.=.=.=.=.=.=.=.=.=.=.=.=.=.=.=.=.=.=.=.=.=.=.=.",
"=.=.=.=.=.=.=.=.=.=.=.=.=.=.=.=.=.=.=.=.=.=.=.=.=.=.=.=.=.=.=.=.",
"=.=.=.=.=.=.=.=.=.=.=.=.=.=.=.=.=.=.=.=.=.=.=.=.=.=.=.=.=.=.=.=.",
"=.=.=.=.=.=.=.=.=.=.=.=.=.=.=.=.=.=.=.=.=.=.=.=.=.=.=.=.=.=.=.=."
};
