/* XPM */
static char *result[] = {
/* columns rows colors chars-per-pixel */
"32 32 111 2 ",
"   c #1F080D",
".  c #1F0A10",
"X  c #21090E",
"o  c #220D13",
"O  c #231016",
"+  c #25131A",
"@  c #2A1721",
"#  c #271921",
"$  c #2A1923",
"%  c #2F1E2B",
"&  c #2D232E",
"*  c #2E2632",
"=  c #2F2936",
"-  c #2F2C3A",
";  c #302A37",
":  c #312E3C",
">  c #2F303E",
",  c #31303E",
"<  c #3B333C",
"1  c #323442",
"2  c #363846",
"3  c #3F3A44",
"4  c #3F344A",
"5  c #363B4C",
"6  c #3A394C",
"7  c #3C3E51",
"8  c #433C46",
"9  c #3A4255",
"0  c #3D4459",
"q  c #3C4A5E",
"w  c #3E5267",
"e  c #3F546A",
"r  c #45414B",
"t  c #49435F",
"y  c #4D515F",
"u  c #4A4460",
"i  c #414E65",
"p  c #4A5162",
"a  c #43536B",
"s  c #4A5768",
"d  c #4C5B6C",
"f  c #455770",
"g  c #4D5472",
"h  c #505F7E",
"j  c #5E6673",
"k  c #4C6683",
"l  c #4A6B87",
"z  c #4A6E8A",
"x  c #516080",
"c  c #506C8B",
"v  c #4C708D",
"b  c #54728F",
"n  c #5B6F94",
"m  c #4F7190",
"M  c #527595",
"N  c #527798",
"B  c #5A7399",
"V  c #517D9D",
"C  c #6F7E8C",
"Z  c #627F99",
"A  c #597DA1",
"S  c #748594",
"D  c #5285A6",
"F  c #5E80A7",
"G  c #5F8BA7",
"H  c #5986AB",
"J  c #558AAC",
"K  c #578FB2",
"L  c #5C8EB3",
"P  c #5791B4",
"I  c #5993B6",
"U  c #5D96BB",
"Y  c #638CAA",
"T  c #7B9AAE",
"R  c #6497B6",
"E  c #6498B7",
"W  c #7D9DB2",
"Q  c #7EA5BC",
"!  c #5E9EC5",
"~  c #609AC2",
"^  c #619FC8",
"/  c #5EA4CC",
"(  c #61A5CD",
")  c #6BAACE",
"_  c #61A7D0",
"`  c #62AAD3",
"'  c #6DADD2",
"]  c #63AFD9",
"[  c #64B1DB",
"{  c #6DB5DD",
"}  c #72B7DD",
"|  c #71B8DF",
" . c #76BBE0",
".. c #87A1B2",
"X. c #89A3B4",
"o. c #80A6BD",
"O. c #8DABBE",
"+. c #94B4C7",
"@. c #88BBD7",
"#. c #82BEDE",
"$. c #96BDD3",
"%. c #83C1E2",
"&. c #8BC5E3",
"*. c #9CCDE6",
"=. c #9ECFE8",
"-. c #9FD0E9",
";. c #A6CEE2",
":. c #A4D3EB",
">. c #ABD6EB",
",. c #ACDBF2",
"<. c None",
/* pixels */
"<.<.<.<.<.<.<.<.<.<.<.<.<.<.<.<.<.<.<.<.<.<.<.<.<.<.<.<.<.<.<.<.",
"<.<.<.<.<.<.<.<.<.<.<.<.<.<.<.<.<.<.<.<.<.<.<.<.<.<.<.<.<.<.<.<.",
"<.<.<.<.<.<.<.<.<.<.<.<.<.<.o o <.<.<.<.<.<.<.<.<.<.<.<.<.<.<.<.",
"<.<.<.<.<.<.<.<.<.<.<.<.<.<.1 1 <.<.<.<.<.<.<.<.<.<.<.<.<.<.<.<.",
"<.<.<.<.<.<.<.<.<.<.<.<.X 1 v z 1 X . o <.<.<.<.<.<.<.<.<.<.<.<.",
"<.<.<.<.<.<.<.<.<.<.<.<., a P U d 3 2 1 <.<.<.<.<.<.<.<.<.<.<.<.",
"<.<.<.<.<.<.<.<.<.<.O 1 z P / ) Q W G z , X <.<.<.<.<.<.<.<.<.<.",
"<.<.<.<.<.<.<.<.<.<.o 1 D [ { #.-.-. .P w , <.<.<.<.<.<.<.<.<.<.",
"<.<.<.<.<.<.<.<.o o X 1 D { &.*.:.*.} / P z >   <.<.<.<.<.<.<.<.",
"<.<.<.<.<.<.<.<.1 2 1 a E %.=.>.>.*.#.| [ I e > <.<.<.<.<.<.<.<.",
"<.<.<.<.<.<.X : l J D E @.-.>.>.>.>.-.&.| / P z 1 o <.<.<.<.<.<.",
"<.<.<.<.<.<.8 s I [ [ ' Q X.........X.T G I ` J 2 o <.<.<.<.<.<.",
"<.<.<.<.o 8 S ) ) ] [ U d 8 8 8 8 r 8 3 1 a U J 2 o <.<.<.<.<.<.",
"<.<.<.<.o r O.:.%.) P z 5 = - 1 , 1 , > = 9 v l 1 O <.<.<.<.<.<.",
"<.<.<.<.o r X.,.:.Q s 5 a l V D D D D V l a 7 = # + <.<.<.<.<.<.",
"<.<.<.<.. 8 S +.;.O.y 5 m U ` [ ] [ [ _ ! m 9 & # + <.<.<.<.<.<.",
"<.<.<.<.<.<.3 j +.$.Z c I ( ] ] ] [ ] ` _ U M i * O <.<.<.<.<.<.",
"<.<.<.<.<.<.. < C ..Y H U ~ ~ U J K ( _ ~ L M i * O <.<.<.<.<.<.",
"<.<.<.<.<.<.o $ < p b V B n n h 9 a K ( Y h 6 ; @ + <.<.<.<.<.<.",
"<.<.<.<.<.<.+ O . = k B g u u 4 + , D U x 8 $ X + + <.<.<.<.<.<.",
"<.<.<.<.<.<.<.<.O - k c 6 % % $ O 2 J K 9 + O O + + <.<.<.<.<.<.",
"<.<.<.<.<.<.<.<.O - f f 6 : 1 2 1 a I I a 2 , ; # + <.<.<.<.<.<.",
"<.<.<.<.<.<.<.<.<.<.* 5 a v V D D P ( ( P D z a * + <.<.<.<.<.<.",
"<.<.<.<.<.<.<.<.<.<.o * a N U ` [ _ K K / U b a = O <.<.<.<.<.<.",
"<.<.<.<.<.<.<.<.<.<.<.<.= 0 M ~ ] P w q N N 0 = <.<.<.<.<.<.<.<.",
"<.<.<.<.<.<.<.<.<.<.<.<.o * a z A z , * a a = o <.<.<.<.<.<.<.<.",
"<.<.<.<.<.<.<.<.<.<.<.<.<.<.= : 1 1 <.<.; ; <.<.<.<.<.<.<.<.<.<.",
"<.<.<.<.<.<.<.<.<.<.<.<.<.<.O O O o <.<.O O <.<.<.<.<.<.<.<.<.<.",
"<.<.<.<.<.<.<.<.<.<.<.<.<.<.<.<.<.<.<.<.<.<.<.<.<.<.<.<.<.<.<.<.",
"<.<.<.<.<.<.<.<.<.<.<.<.<.<.<.<.<.<.<.<.<.<.<.<.<.<.<.<.<.<.<.<.",
"<.<.<.<.<.<.<.<.<.<.<.<.<.<.<.<.<.<.<.<.<.<.<.<.<.<.<.<.<.<.<.<.",
"<.<.<.<.<.<.<.<.<.<.<.<.<.<.<.<.<.<.<.<.<.<.<.<.<.<.<.<.<.<.<.<."
};
