/* XPM */
static char *result[] = {
/* columns rows colors chars-per-pixel */
"32 32 149 2 ",
"   c #1B0B17",
".  c #200F19",
"X  c #412A1F",
"o  c #412A20",
"O  c #412A21",
"+  c #432B21",
"@  c #432C21",
"#  c #432C22",
"$  c #452D21",
"%  c #452D22",
"&  c #452E23",
"*  c #493022",
"=  c #493023",
"-  c #694B2C",
";  c #694C2C",
":  c #694C2D",
">  c #7D5A2D",
",  c #7D5B2F",
"<  c #694D32",
"1  c #694E34",
"2  c #7D5B31",
"3  c #7F5D30",
"4  c #7F5D32",
"5  c #977136",
"6  c #977137",
"7  c #997237",
"8  c #9A7237",
"9  c #977138",
"0  c #977139",
"q  c #997238",
"w  c #997239",
"e  c #9A7339",
"r  c #AF8640",
"t  c #AF8741",
"y  c #AF8743",
"u  c #B08842",
"i  c #B08843",
"p  c #AF8C53",
"a  c #AF8D56",
"s  c #B08D55",
"d  c #B08E57",
"f  c #CCA04A",
"g  c #CCA04B",
"h  c #CDA04B",
"j  c #CCA14E",
"k  c #CDA14F",
"l  c #D4A74E",
"z  c #D6A94D",
"x  c #D6A94E",
"c  c #D6A84F",
"v  c #D6A94F",
"b  c #CCA150",
"n  c #CCA45B",
"m  c #CDA55B",
"M  c #CCA55C",
"N  c #D6A950",
"B  c #D6AA51",
"V  c #D4A954",
"C  c #D6AA55",
"Z  c #D6AB55",
"A  c #DBAF53",
"S  c #DBAF54",
"D  c #DDB255",
"F  c #DDB357",
"G  c #DBB15A",
"H  c #E2B556",
"J  c #E7BA57",
"K  c #E7BB58",
"L  c #E7BB59",
"P  c #E7BB5B",
"I  c #E7BC5B",
"U  c #CDA762",
"Y  c #CDA764",
"T  c #D4AC61",
"R  c #D6AE62",
"E  c #D6AE63",
"W  c #D6AF63",
"Q  c #D4AE68",
"!  c #DBB566",
"~  c #D6B068",
"^  c #D6B069",
"/  c #D6B474",
"(  c #D6B475",
")  c #DBBB7F",
"_  c #DBBC7F",
"`  c #E2BA69",
"'  c #E2BB6A",
"]  c #F0C45E",
"[  c #F0C55E",
"{  c #F0C55F",
"}  c #F0C560",
"|  c #F4C860",
" . c #F4C962",
".. c #F5C962",
"X. c #F5CB63",
"o. c #F6CB62",
"O. c #F6CB63",
"+. c #F9CE64",
"@. c #F6CC68",
"#. c #F9CF69",
"$. c #F9D06B",
"%. c #FED468",
"&. c #FED469",
"*. c #FFD669",
"=. c #F0CA70",
"-. c #F0CA72",
";. c #F0CB73",
":. c #F4CD72",
">. c #F5CF74",
",. c #F5CF75",
"<. c #F5CF76",
"1. c #F5D075",
"2. c #F5D077",
"3. c #F6D177",
"4. c #FFDC72",
"5. c #FED97B",
"6. c #FFDB7D",
"7. c #FFDC7D",
"8. c #DDC38F",
"9. c #DDC493",
"0. c #E2C182",
"q. c #E7CE99",
"w. c #E7CD9B",
"e. c #F0D598",
"r. c #F0D69B",
"t. c #F4D99B",
"y. c #F5DA9D",
"u. c #F5DB9E",
"i. c #FFE080",
"p. c #F9DFA1",
"a. c #F0DBAD",
"s. c #F0DBAF",
"d. c #F5DFAF",
"f. c #F4DFB0",
"g. c #F5DFB0",
"h. c #F4DFB1",
"j. c #FEE5A4",
"k. c #FEE6A5",
"l. c #FFEBA9",
"z. c #F5E0B1",
"x. c #F5E0B2",
"c. c #F5E2B7",
"v. c #F5E3B9",
"b. c #F6E3B8",
"n. c #F9E6B9",
"m. c #FEF0CB",
"M. c #FEF0CC",
"N. c #FFF2CC",
"B. c None",
/* pixels */
"B.B.B.B.B.B.B.B.B.B.B.B.B.B.B.B.B.B.B.B.B.B.B.B.B.B.B.B.B.B.B.B.",
"B.B.B.B.B.B.B.B.B.B.B.B.B.B.B.B.B.B.B.B.B.B.B.B.B.B.B.B.B.B.B.B.",
"B.B.B.B.B.B.B.B.B.B.B.B.B.B.B.B.B.B.B.B.B.B.B.B.B.B.B.B.B.B.B.B.",
"B.B.B.B.B.B.B.B.B.B.B.B.B.B.B.B.B.B.B.B.B.B.B.B.B.B.B.B.B.B.B.B.",
"B.B.B.B.B.B.B.B.B.B.B.B.B.B.B.B.B.B.B.B.B.B.B.B.B.B.B.B.B.B.B.B.",
"B.B.B.B.B.B.B.B.B.B.B.B.B.B.B.B.B.B.B.B.B.B.B.B.B.B.B.B.B.B.B.B.",
"B.B.B.B.B.B.B.B.B.B.B.B.. . . . . . . . B.B.B.B.B.B.B.B.B.B.B.B.",
"B.B.B.B.B.B.B.B.B.B.B.B.$ * * * * * = & B.B.B.B.B.B.B.B.B.B.B.B.",
"B.B.B.B.B.B.B.B.B.B.  @ 3 8 7 5 5 7 e 4 #   B.B.B.B.B.B.B.B.B.B.",
"B.B.B.B.B.B.B.B.B.B.X < s ~ ~ Q Q R Z u - o B.B.B.B.B.B.B.B.B.B.",
"B.B.B.B.B.B.B.B.  X > p 8.d.g.f.h.y.,.D r , O   B.B.B.B.B.B.B.B.",
"B.B.B.B.B.B.B.B.@ < p 0.n.m.c.a.s.u.5.#.` a 1 + B.B.B.B.B.B.B.B.",
"B.B.B.B.B.B.. $ 3 s 8.n.N.b.) U Y ! @.6.p.9.d 3 $ . B.B.B.B.B.B.",
"B.B.B.B.B.B.. * 8 ~ z.M.b.q.( n j z K 3.k.u.W 8 * . B.B.B.B.B.B.",
"B.B.B.B.B.B.. * 7 ^ x.v._ / w.r.-.J v G 2.<.C q = . B.B.B.B.B.B.",
"B.B.B.B.B.B.. * 6 T t.e.m M r.l.i.[ f h ] | l 0 = . B.B.B.B.B.B.",
"B.B.B.B.B.B.. = 9 V :.=.k b ;.i.4.} g h { | l 0 = . B.B.B.B.B.B.",
"B.B.B.B.B.B.. = q C >.1.G N K [ } P B S X...c w = . B.B.B.B.B.B.",
"B.B.B.B.B.B.. * 8 E y.j.3.L x f g B I O.&...v e = . B.B.B.B.B.B.",
"B.B.B.B.B.B.. $ 3 d 9.p.7.o.A h h S O.*.+.F i 4 % . B.B.B.B.B.B.",
"B.B.B.B.B.B.B.B.+ 1 a ' $.%.X.} } X.&.+.H y : # B.B.B.B.B.B.B.B.",
"B.B.B.B.B.B.B.B.  O , t F .... . .....F y 2 O   B.B.B.B.B.B.B.B.",
"B.B.B.B.B.B.B.B.B.B.o ; i v c l l c v i : O B.B.B.B.B.B.B.B.B.B.",
"B.B.B.B.B.B.B.B.B.B.  # 4 e w 0 0 w e 4 #   B.B.B.B.B.B.B.B.B.B.",
"B.B.B.B.B.B.B.B.B.B.B.B.% = = = = = = % B.B.B.B.B.B.B.B.B.B.B.B.",
"B.B.B.B.B.B.B.B.B.B.B.B.. . . . . . . . B.B.B.B.B.B.B.B.B.B.B.B.",
"B.B.B.B.B.B.B.B.B.B.B.B.B.B.B.B.B.B.B.B.B.B.B.B.B.B.B.B.B.B.B.B.",
"B.B.B.B.B.B.B.B.B.B.B.B.B.B.B.B.B.B.B.B.B.B.B.B.B.B.B.B.B.B.B.B.",
"B.B.B.B.B.B.B.B.B.B.B.B.B.B.B.B.B.B.B.B.B.B.B.B.B.B.B.B.B.B.B.B.",
"B.B.B.B.B.B.B.B.B.B.B.B.B.B.B.B.B.B.B.B.B.B.B.B.B.B.B.B.B.B.B.B.",
"B.B.B.B.B.B.B.B.B.B.B.B.B.B.B.B.B.B.B.B.B.B.B.B.B.B.B.B.B.B.B.B.",
"B.B.B.B.B.B.B.B.B.B.B.B.B.B.B.B.B.B.B.B.B.B.B.B.B.B.B.B.B.B.B.B."
};
