/* XPM */
static char *result[] = {
/* columns rows colors chars-per-pixel */
"32 32 127 2 ",
"   c #1B0B17",
".  c #200F19",
"X  c #412A1F",
"o  c #412A20",
"O  c #412A21",
"+  c #432B21",
"@  c #432C21",
"#  c #432C22",
"$  c #452D21",
"%  c #452D22",
"&  c #452E23",
"*  c #493022",
"=  c #493023",
"-  c #493123",
";  c #694B2C",
":  c #694C2C",
">  c #694C2D",
",  c #7D5A2D",
"<  c #7D5B2F",
"1  c #694D32",
"2  c #694E34",
"3  c #7D5B31",
"4  c #7F5D30",
"5  c #7F5D32",
"6  c #977137",
"7  c #997237",
"8  c #9A7237",
"9  c #977138",
"0  c #977139",
"q  c #997238",
"w  c #997239",
"e  c #9B7338",
"r  c #9A7339",
"t  c #9B7439",
"y  c #BB8D3E",
"u  c #BB8D3F",
"i  c #AF8640",
"p  c #AF8741",
"a  c #AF8743",
"s  c #B08842",
"d  c #B08843",
"f  c #BB8E40",
"g  c #AF8C53",
"h  c #AF8C54",
"j  c #AF8D56",
"k  c #B08D55",
"l  c #B08E57",
"z  c #CDA14B",
"x  c #CEA24C",
"c  c #D4A74E",
"v  c #D6A84F",
"b  c #D6A94F",
"n  c #CDA250",
"m  c #CEA351",
"M  c #CDA55C",
"N  c #CEA75D",
"B  c #D4A954",
"V  c #D6AA55",
"C  c #D8AB50",
"Z  c #D8AC56",
"A  c #DCB054",
"S  c #DDB255",
"D  c #DDB357",
"F  c #DCB25A",
"G  c #E1B556",
"H  c #D4AC61",
"J  c #D6AE63",
"K  c #D6AF63",
"L  c #D8B062",
"P  c #D6B068",
"I  c #D6B069",
"U  c #E1BA68",
"Y  c #E1BA6A",
"T  c #EFC45E",
"R  c #EFC45F",
"E  c #F1C65F",
"W  c #F4C860",
"Q  c #F5C962",
"!  c #F5CA63",
"~  c #F6CA62",
"^  c #F6CB64",
"/  c #F8CD64",
"(  c #F8CE68",
")  c #F8CF6B",
"_  c #FED468",
"`  c #FFD569",
"'  c #FFD869",
"]  c #FFD86A",
"[  c #FFD96B",
"{  c #EFC970",
"}  c #F1CB71",
"|  c #F4CD72",
" . c #F5CF74",
".. c #F5CF75",
"X. c #F5CF76",
"o. c #F5D076",
"O. c #F6D076",
"+. c #F6D177",
"@. c #FFDA7A",
"#. c #FFDA7C",
"$. c #DCBD81",
"%. c #DDC38F",
"&. c #DDC391",
"*. c #DDC493",
"=. c #E1C183",
"-. c #FFDF82",
";. c #EFD497",
":. c #F1D69A",
">. c #F4D99B",
",. c #F5DA9D",
"<. c #F6DB9D",
"1. c #F5DB9E",
"2. c #F8DE9F",
"3. c #FFE185",
"4. c #F8DEA1",
"5. c #FEE5A4",
"6. c #F5E0B1",
"7. c #F5E0B2",
"8. c #F5E2B8",
"9. c #F6E4BA",
"0. c #F8E5B9",
"q. c #F8E6BB",
"w. c #FFEEB8",
"e. c #FFF0BB",
"r. c #FEF0CC",
"t. c #FFF1CC",
"y. c None",
/* pixels */
"y.y.y.y.y.y.y.y.y.y.y.y.y.y.y.y.y.y.y.y.y.y.y.y.y.y.y.y.y.y.y.y.",
"y.y.y.y.y.y.y.y.y.y.y.y.y.y.y.y.y.y.y.y.y.y.y.y.y.y.y.y.y.y.y.y.",
"y.y.y.y.y.y.y.y.y.y.y.y.y.y.y.y.y.y.y.y.y.y.y.y.y.y.y.y.y.y.y.y.",
"y.y.y.y.y.y.y.y.y.y.y.y.y.y.y.y.y.y.y.y.y.y.y.y.y.y.y.y.y.y.y.y.",
"y.y.y.y.y.y.y.y.y.y.y.y.y.y.y.y.y.y.y.y.y.y.y.y.y.y.y.y.y.y.y.y.",
"y.y.y.y.y.y.y.y.y.y.y.y.y.y.y.y.y.y.y.y.y.y.y.y.y.y.y.y.y.y.y.y.",
"y.y.y.y.y.y.y.y.y.y.y.y.y.y.. . . . y.y.y.y.y.y.y.y.y.y.y.y.y.y.",
"y.y.y.y.y.y.y.y.y.y.y.y.y.y.$ * = & y.y.y.y.y.y.y.y.y.y.y.y.y.y.",
"y.y.y.y.y.y.y.y.y.y.y.y.  + 4 e t 5 #   y.y.y.y.y.y.y.y.y.y.y.y.",
"y.y.y.y.y.y.y.y.y.y.y.y.X 1 k L Z s ; o y.y.y.y.y.y.y.y.y.y.y.y.",
"y.y.y.y.y.y.y.y.y.y.  X , h &.<.O.S i < O   y.y.y.y.y.y.y.y.y.y.",
"y.y.y.y.y.y.y.y.y.y.@ 1 g =.q.e.3.( U j 2 + y.y.y.y.y.y.y.y.y.y.",
"y.y.y.y.y.y.y.y.. $ 4 k %.0.t.w.-.@.2.*.l 4 $ . y.y.y.y.y.y.y.y.",
"y.y.y.y.y.y.y.y.. * 8 P 6.r.8.;.{ ..5.1.K 8 * . y.y.y.y.y.y.y.y.",
"y.y.y.y.y.y.y.y.. * 7 I 7.9.$.M n F +.X.V q = . y.y.y.y.y.y.y.y.",
"y.y.y.y.y.y.y.y.. * 6 H >.:.N y u x E W c 0 = . y.y.y.y.y.y.y.y.",
"y.y.y.y.y.y.y.y.. = 9 B | } m u f x E W c 0 = . y.y.y.y.y.y.y.y.",
"y.y.y.y.y.y.y.y.. = q V  .O.F z z A ^ Q v w = . y.y.y.y.y.y.y.y.",
"y.y.y.y.y.y.y.y.. * 8 J ,.5.o.T R ! _ Q b r = . y.y.y.y.y.y.y.y.",
"y.y.y.y.y.y.y.y.. $ 4 l *.4.#.' ] ` / D d 5 % . y.y.y.y.y.y.y.y.",
"y.y.y.y.y.y.y.y.y.y.+ 2 j Y ) [ [ / G a > # y.y.y.y.y.y.y.y.y.y.",
"y.y.y.y.y.y.y.y.y.y.  O < p D ~ ~ D a 3 O   y.y.y.y.y.y.y.y.y.y.",
"y.y.y.y.y.y.y.y.y.y.y.y.o : d C C d > O y.y.y.y.y.y.y.y.y.y.y.y.",
"y.y.y.y.y.y.y.y.y.y.y.y.  # 5 t t 5 #   y.y.y.y.y.y.y.y.y.y.y.y.",
"y.y.y.y.y.y.y.y.y.y.y.y.y.y.% - - % y.y.y.y.y.y.y.y.y.y.y.y.y.y.",
"y.y.y.y.y.y.y.y.y.y.y.y.y.y.. . . . y.y.y.y.y.y.y.y.y.y.y.y.y.y.",
"y.y.y.y.y.y.y.y.y.y.y.y.y.y.y.y.y.y.y.y.y.y.y.y.y.y.y.y.y.y.y.y.",
"y.y.y.y.y.y.y.y.y.y.y.y.y.y.y.y.y.y.y.y.y.y.y.y.y.y.y.y.y.y.y.y.",
"y.y.y.y.y.y.y.y.y.y.y.y.y.y.y.y.y.y.y.y.y.y.y.y.y.y.y.y.y.y.y.y.",
"y.y.y.y.y.y.y.y.y.y.y.y.y.y.y.y.y.y.y.y.y.y.y.y.y.y.y.y.y.y.y.y.",
"y.y.y.y.y.y.y.y.y.y.y.y.y.y.y.y.y.y.y.y.y.y.y.y.y.y.y.y.y.y.y.y.",
"y.y.y.y.y.y.y.y.y.y.y.y.y.y.y.y.y.y.y.y.y.y.y.y.y.y.y.y.y.y.y.y."
};
