/* XPM */
static char *result[] = {
/* columns rows colors chars-per-pixel */
"32 32 22 1 ",
"  c #241319",
". c #29161F",
"X c #321D2A",
"o c #382233",
"O c #382133",
"+ c #372131",
"@ c #362030",
"# c #3C2439",
"$ c #3A2337",
"% c #382132",
"& c #3D253B",
"* c #3D253C",
"= c #3B2438",
"- c #36202F",
"; c #392235",
": c #3D253A",
"> c #3B2439",
", c #372132",
"< c #392234",
"1 c #3A2336",
"2 c #362031",
"3 c white",
/* pixels */
"                                ",
"................................",
"XXXXXXXXXXXXXXXXXXXXXXXXXXXXXXXX",
"oooooooooooooooooooooooooooooO+@",
"#############################$%@",
"&&&&&&&&&&&&&&&&&&&&&&&&&&&&*=O@",
"&&&&&&&&&&&&&&&&&&&&&&&&&&&&&=O@",
"&&&&&&&&&&&&&&&&&&&&&&&&&&&&&=O@",
"&&&&&&&&&&&&&&&&&&&&&&&&&&&&&=O@",
"&&&&&&&&&&&&&&&&&&&&&&&&&&&&&=O@",
"&&&&&&&&&&&&&&&&&&&&&&&&&&&&&=O@",
"&&&&&&&&&&&&&&&&&&&&&&&&&&&&&=O@",
"&&&&&&&&&&&&&&&&&&&&&&&&&&&&&=O@",
"&&&&&&&&&&&&&&&&&&&&&&&&&&&&&=%-",
"&&&&&&&&&&&&&&&&&&&&&&&&&&&&&=%-",
"&&&&&&&&&&&&&&&&&&&&&&&&&&&&&#;O",
"&&&&&&&&&&&&&&&&&&&&&&&&&&&&&:#>",
"&&&&&&&&&&&&&&&&&&&&&&&&&&&&&:#=",
"&&&&&&&&&&&&&&&&&&&&&&&&&&&&&#;,",
"&&&&&&&&&&&&&&&&&&&&&&&&&&&&&#<,",
"&&&&&&&&&&&&&&&&&&&&&&&&&&&&&:#=",
"&&&&&&&&&&&&&&&&&&&&&&&&&&&&&&&&",
"&&&&&&&&&&&&&&&&&&&&&&&&&&&&&&&&",
"&&&&&&&&&&&&&:##:&&&&&&&&&&&&&&&",
"&&&&&&&&&&&&&#<<#&&&&&&&&&&&&&&&",
"&&&&&&&&&&&&&=,,=&&&&&&&&&&&&&&&",
"&&&&&&&&&&&&&=,,=&&&&&&&&&&&&&&&",
"&&&&&&&&&&&&&=%%=&&&&&&&&&&&&&&&",
"&&&&&&&&&&&&*=%%=*&&&&&&&&&&&&&&",
"=============1,,1====#::##:&&&&&",
"OOOOOOOOOOOOO,22,OO%%;##;<#&&&&&",
"@@@@@@@@@@@@@@@@@@@--O>=,,=&&&&&"
};
