/* XPM */
static char *result[] = {
/* columns rows colors chars-per-pixel */
"32 32 117 2 ",
"   c #1F090F",
".  c #1F0A10",
"X  c #220D13",
"o  c #231016",
"O  c #25131A",
"+  c #2A1721",
"@  c #271921",
"#  c #2A1A23",
"$  c #2F1E2B",
"%  c #2D232E",
"&  c #2E2632",
"*  c #2F2936",
"=  c #2F2D3A",
"-  c #302A37",
";  c #312D3B",
":  c #2F303E",
">  c #30303E",
",  c #3B333C",
"<  c #323443",
"1  c #3F3943",
"2  c #3F344A",
"3  c #363C4D",
"4  c #393A4A",
"5  c #3C3E51",
"6  c #423C46",
"7  c #423F49",
"8  c #3A4255",
"9  c #3D4459",
"0  c #3C4B5F",
"q  c #3C4C60",
"w  c #3D5267",
"e  c #3E5469",
"r  c #45414B",
"t  c #49435F",
"y  c #4D515F",
"u  c #4A4460",
"i  c #414E65",
"p  c #4A5162",
"a  c #43546B",
"s  c #4B5A6B",
"d  c #505D6E",
"f  c #455770",
"g  c #4D5472",
"h  c #505F7E",
"j  c #5E6673",
"k  c #4C6683",
"l  c #476C87",
"z  c #4B6B87",
"x  c #4A6E8B",
"c  c #516080",
"v  c #506C8B",
"b  c #4D718E",
"n  c #54728F",
"m  c #5B6F94",
"M  c #4D7390",
"N  c #4D7895",
"B  c #527595",
"V  c #527798",
"C  c #5A7399",
"Z  c #517D9D",
"A  c #6F7E8C",
"S  c #627F99",
"D  c #597DA1",
"F  c #738594",
"G  c #5285A6",
"H  c #5E80A7",
"J  c #5986AB",
"K  c #5589AB",
"L  c #5F8BA8",
"P  c #568EB1",
"I  c #5C8EB3",
"U  c #5691B4",
"Y  c #5993B6",
"T  c #5D96BC",
"R  c #658BAA",
"E  c #6190AE",
"W  c #7B9BAF",
"Q  c #6397B7",
"!  c #669BBB",
"~  c #699BBA",
"^  c #7D9DB3",
"/  c #7FA6BE",
"(  c #5E9EC5",
")  c #609AC2",
"_  c #619FC8",
"`  c #5DA2CA",
"'  c #5FA7D0",
"]  c #61A5CD",
"[  c #61A7D0",
"{  c #63AAD4",
"}  c #6BACD1",
"|  c #63AED8",
" . c #6EB0D5",
".. c #65B1DB",
"X. c #6FB5DC",
"o. c #71B7DE",
"O. c #66B5E0",
"+. c #87A1B2",
"@. c #89A3B3",
"#. c #8DABBE",
"$. c #8CADC1",
"%. c #94B4C7",
"&. c #82BEDF",
"*. c #89BDDA",
"=. c #96BDD3",
"-. c #95C3DC",
";. c #84C2E3",
":. c #8BC4E3",
">. c #9ECEE6",
",. c #9FCFE8",
"<. c #9FD0E9",
"1. c #A6CEE2",
"2. c #A1D3ED",
"3. c #ABD6EB",
"4. c #ADD8ED",
"5. c #ABDAF1",
"6. c None",
/* pixels */
"6.6.6.6.6.6.6.6.6.6.6.6.6.6.6.6.6.6.6.6.6.6.6.6.6.6.6.6.6.6.6.6.",
"6.6.6.6.6.6.6.6.6.6.6.6.6.6.6.6.6.6.6.6.6.6.6.6.6.6.6.6.6.6.6.6.",
"6.6.6.6.6.6.6.6.6.6.6.6.6.6.6.6.6.6.6.6.6.6.6.6.6.6.6.6.6.6.6.6.",
"6.6.6.6.6.6.6.6.6.6.6.6.6.6.6.6.6.6.6.6.6.6.6.6.6.6.6.6.6.6.6.6.",
"6.6.6.6.6.6.6.6.6.6.6.6.X X 6.6.6.6.6.6.6.6.6.6.6.6.6.6.6.6.6.6.",
"6.6.6.6.6.6.6.6.6.6.6.6.< < 6.6.6.6.6.6.6.6.6.6.6.6.6.6.6.6.6.6.",
"6.6.6.6.6.6.6.6.6.6.X < x x < X X X 6.6.6.6.6.6.6.6.6.6.6.6.6.6.",
"6.6.6.6.6.6.6.6.6.6.X 4 Q ! e < < < 6.6.6.6.6.6.6.6.6.6.6.6.6.6.",
"6.6.6.6.6.6.6.6.6.6.X r ^ *.Q G G z > X X X 6.6.6.6.6.6.6.6.6.6.",
"6.6.6.6.6.6.6.6.6.6.. 7 @.>.;.X...U e < < < 6.6.6.6.6.6.6.6.6.6.",
"6.6.6.6.6.6.X X 6.6.. 7 @.3.>.;.o.` U G G b < o 6.6.6.6.6.6.6.6.",
"6.6.6.6.6.6.< < 6.6.= d #.4.4.>.;.X...O...G < o 6.6.6.6.6.6.6.6.",
"6.6.6.6.X < b l < = l ~ -.4.3.3.>.:.o.....K < . 6.6.6.6.6.6.6.6.",
"6.6.6.6.o 4 E ! a w U  ./ @.@.@.+.W R G G b q < 6.6.6.6.6.6.6.6.",
"6.6.6.6.X r ^ *.Q P ` Y s 1 6 6 r 1 < < < 0 N M < X 6.6.6.6.6.6.",
"6.6.6.6.X r @.<.;.} Y b 8 * : < > < < > * 8 M z > O 6.6.6.6.6.6.",
"6.6.6.6.. r @.5.2./ s 3 a k Z G G G G Z k f 5 = @ O 6.6.6.6.6.6.",
"6.6.6.6.X 7 F %.1.$.p 3 b ( { | ......[ ( B 5 & @ O 6.6.6.6.6.6.",
"6.6.6.6.6.6.1 j %.=.S v Y [ { | ..| | { [ T B i & o 6.6.6.6.6.6.",
"6.6.6.6.6.6.. , A ^ R J T ) ) T K U ` [ ( I B a & o 6.6.6.6.6.6.",
"6.6.6.6.6.6.X # , p n D C m m h 8 a U ] H j 5 & @ O 6.6.6.6.6.6.",
"6.6.6.6.6.6.O O X - k C g u u 2 # > G T c 2 # X O O 6.6.6.6.6.6.",
"6.6.6.6.6.6.6.6.X ; k z 4 $ $ # o < K P 8 @ o X O O 6.6.6.6.6.6.",
"6.6.6.6.6.6.6.6.X ; a f 4 ; < < < a Y Y e < < & @ O 6.6.6.6.6.6.",
"6.6.6.6.6.6.6.6.6.6.- 4 a b G G G U ` [ U D x a & o 6.6.6.6.6.6.",
"6.6.6.6.6.6.6.6.6.6.X & a V Q { ..] Y K ( T V a - o 6.6.6.6.6.6.",
"6.6.6.6.6.6.6.6.6.6.6.6.- 8 V ) | Y w 0 V V 9 * 6.6.6.6.6.6.6.6.",
"6.6.6.6.6.6.6.6.6.6.6.6.. & i x G x : & a a * X 6.6.6.6.6.6.6.6.",
"6.6.6.6.6.6.6.6.6.6.6.6.6.6.- ; > < 6.6.* - 6.6.6.6.6.6.6.6.6.6.",
"6.6.6.6.6.6.6.6.6.6.6.6.6.6.o o X X 6.6.X O 6.6.6.6.6.6.6.6.6.6.",
"6.6.6.6.6.6.6.6.6.6.6.6.6.6.6.6.6.6.6.6.6.6.6.6.6.6.6.6.6.6.6.6.",
"6.6.6.6.6.6.6.6.6.6.6.6.6.6.6.6.6.6.6.6.6.6.6.6.6.6.6.6.6.6.6.6."
};
