/* XPM */
static char *result[] = {
/* columns rows colors chars-per-pixel */
"32 32 140 2 ",
"   c #1E0C15",
".  c #210F16",
"X  c #210F19",
"o  c #221017",
"O  c #221119",
"+  c #29161C",
"@  c #2B181E",
"#  c #341C1E",
"$  c #3D201E",
"%  c #271520",
"&  c #2A1423",
"*  c #2C1B21",
"=  c #351E20",
"-  c #3B1F20",
";  c #352223",
":  c #3B2424",
">  c #3C2827",
",  c #392729",
"<  c #3E2B2B",
"1  c #372830",
"2  c #392B34",
"3  c #3C2138",
"4  c #3E323A",
"5  c #432624",
"6  c #472825",
"7  c #4A2926",
"8  c #422E2C",
"9  c #43312F",
"0  c #53342C",
"q  c #5D372F",
"w  c #453332",
"e  c #493635",
"r  c #41343C",
"t  c #4F3A3E",
"y  c #533C35",
"u  c #5C3A31",
"i  c #523E3A",
"p  c #65382E",
"a  c #613E34",
"s  c #554037",
"d  c #544039",
"f  c #5A453B",
"g  c #5F483A",
"h  c #674239",
"j  c #624B3C",
"k  c #7C4635",
"l  c #7A4A37",
"z  c #724A3B",
"x  c #7E4E3D",
"c  c #67503F",
"v  c #6A503F",
"b  c #472845",
"n  c #482945",
"m  c #443B44",
"M  c #574446",
"N  c #594742",
"B  c #5B4843",
"V  c #5A4748",
"C  c #58494C",
"Z  c #554C52",
"A  c #5A545E",
"S  c #614E47",
"D  c #6A5342",
"F  c #645149",
"G  c #7C5444",
"H  c #745C46",
"J  c #634754",
"K  c #654857",
"L  c #785D55",
"P  c #7B644E",
"I  c #756256",
"U  c #7D6651",
"Y  c #776458",
"T  c #786558",
"R  c #7D6A5C",
"E  c #5E5C66",
"W  c #6F5063",
"Q  c #635C66",
"!  c #605E68",
"~  c #705063",
"^  c #7E6E63",
"/  c #76727D",
"(  c #844D38",
")  c #83523F",
"_  c #92563E",
"`  c #845340",
"'  c #835C4A",
"]  c #885B49",
"[  c #935740",
"{  c #945A42",
"}  c #9D5C42",
"|  c #80684F",
" . c #9E6247",
".. c #836B53",
"X. c #80675F",
"o. c #816E5F",
"O. c #927A5D",
"+. c #A86649",
"@. c #A5725F",
"#. c #81656C",
"$. c #8A7562",
"%. c #8E7965",
"&. c #8E7B69",
"*. c #927E6B",
"=. c #A67360",
"-. c #B17C65",
";. c #95816E",
":. c #9C8369",
">. c #9F896D",
",. c #978470",
"<. c #9A8573",
"1. c #9D8974",
"2. c #9D867A",
"3. c #A28A6D",
"4. c #A58E7E",
"5. c #A9957D",
"6. c #AE997E",
"7. c #B09B7E",
"8. c #707580",
"9. c #797581",
"0. c #737883",
"q. c #7D7E89",
"w. c #7A818C",
"e. c #84838D",
"r. c #848591",
"t. c #999294",
"y. c #AD9981",
"u. c #B29D82",
"i. c #B6A286",
"p. c #B4A29C",
"a. c #8B93A0",
"s. c #9299A6",
"d. c #939EAA",
"f. c #96A1AE",
"g. c #9CA4B2",
"h. c #9EAAB7",
"j. c #A1A8B0",
"k. c #A1ADBA",
"l. c #ADBFCD",
"z. c None",
/* pixels */
"z.z.z.z.z.z.o o X X X X X X o o z.z.z.z.z.z.z.z.z.z.z.z.z.z.z.z.",
"z.z.z.z.z.z.: < w w w w w w < : z.z.z.z.z.z.z.z.z.z.z.z.z.z.z.z.",
"z.z.z.z.  : j P $.*.*.*.*.$.H j ;   z.z.z.z.z.z.z.z.z.z.z.z.z.z.",
"z.z.z.z.; y U 3.u.i.u.i.u.u.3...d : z.z.z.z.z.z.z.z.z.z.z.z.z.z.",
"z.z.o : j U >.6.u.u.u.i.u.y.y.<...j > o . . . . . o z.z.z.z.z.z.",
"z.z.o < P :.1.2.4.<.*.<.y.y.y.*...j ; @ 1 r r 4 r 2 z.z.z.z.z.z.",
"z.z.. 9 $.1.#.~ ~ K n S *.y.^ K e ; + 2 Q 9./ / / Q 2   z.z.z.z.",
"z.z.. e ;.2.K n n 3 + r *.*.K 3 & . o 2 Q r.s.g.g.r.Z 2 z.z.z.z.",
"z.z.o e &.,.m & & + X w ;.;.t + X o o @ , A s.l.l.k.e.Q 1   z.z.",
"z.z.  e R R s 8 w w w F <.<.S w e 9 * o o r e.j.d.s.g.r.Z 2 z.z.",
"z.z.z.z.w y D U $.*.&.,.y.6.,.;.;.Y 2 o . < L X.C E d.k.r.Q 2 o ",
"z.z.z.z.  ; g ..3.u.u.y.,.,.y.y.1.R w   O 5 x l $ 2 8.f.g.q.r . ",
"z.z.z.z.. + ; s ..3.u.1.S S 1.1.F w z.z.O 5 [ _ 6 % 2 E f.a.m . ",
"z.z.z.z.> ; O ; f U $.I , , I Y <   z.z.o 7 } } 7     m w.0.r o ",
"z.z.o > j j ; + = 8 w < + % < < @   z.z.O 7 } } 7   z.z.m 4 * O ",
"z.z.. < U ..y 5 6 - + O : : @ + : < z.z.  5 _ } q : z.z.. o O + ",
"z.z.  9 $.3.| x [ k # ; j j ; ; j c >     : x { G h : . z.z.z.z.",
"z.z.9 N o.o.G ) +.} p 0 D j ; : j D i e w t h z z a : O z.z.z.z.",
". w R o.B 8 ; 0 ` +.} ( 0 ; + + ; i R ;.,.R y : : : z.z.z.z.z.z.",
". e %.%.w O $ 8 u ' -.@.h : @ o   w R ;.,.Y ,   . o z.z.z.z.z.z.",
". 9 U U 9 $ f j 5 M t.p.=.k 5 X z.z.e e e < * O z.z.z.z.z.z.z.z.",
"o ; j j ; > P P f Z w.t.-._ 6   z.z.  + = = + + z.z.z.z.z.z.z.z.",
"o @ ; ; + > H O.*.^ Z V ] x 5 o z.z.o ; u u ; O z.z.z.z.z.z.z.z.",
"+ + o X   : H O.;.Y > # u u ; o z.z.o 5 x x 5 o z.z.z.z.z.z.z.z.",
"z.z.z.z.  > H ..f 2 @ + # : + + z.z.  7 { [ 7 o z.z.z.z.z.z.z.z.",
"z.z.z.z.w i D j :   O @ < < * O z.z.o 7 [ [ 7 o z.z.z.z.z.z.z.z.",
"z.z.X e R R d : z.z.. < Y Y < o z.z.X 5 G x 5 O z.z.z.z.z.z.z.z.",
"z.z.. w %.$.w   z.z.. e $.%.e X z.z.X : z z > o z.z.z.z.z.z.z.z.",
"z.z.o 8 P U < o z.z.o 8 U U 8 o z.z.o > z z : o z.z.z.z.z.z.z.z.",
"z.z.o < H H < o z.z.o < H H < o z.z.+ : z z 5 o z.z.z.z.z.z.z.z.",
"z.z.z.z.z.z.z.z.z.z.z.z.z.z.z.z.z.z.z.z.z.z.z.z.z.z.z.z.z.z.z.z.",
"z.z.z.z.z.z.z.z.z.z.z.z.z.z.z.z.z.z.z.z.z.z.z.z.z.z.z.z.z.z.z.z."
};
