/* XPM */
static char *result[] = {
/* columns rows colors chars-per-pixel */
"32 32 115 2 ",
"   c #4C2F49",
".  c #4B2E49",
"X  c #4E3149",
"o  c #54354A",
"O  c #57374B",
"+  c #57374A",
"@  c #4B2F49",
"#  c #4A2E49",
"$  c #53354A",
"%  c #65424C",
"&  c #6E494E",
"*  c #6D494E",
"=  c #65424D",
"-  c #5F3D4B",
";  c #6F4A4D",
":  c #77514E",
">  c #77504D",
",  c #78514E",
"<  c #79524F",
"1  c #714C4E",
"2  c #5F3E4C",
"3  c #4D3049",
"4  c #513349",
"5  c #5D3C4A",
"6  c #6E4A4C",
"7  c #714C4B",
"8  c #714C4A",
"9  c #734E4B",
"0  c #77504F",
"q  c #523449",
"w  c #5F3E48",
"e  c #694649",
"r  c #6F4A49",
"t  c #6D4A48",
"y  c #6E4A48",
"u  c #704B49",
"i  c #744E4C",
"p  c #6E4A4E",
"a  c #543649",
"s  c #664448",
"d  c #6F4B48",
"f  c #6F4A48",
"g  c #56374A",
"h  c #6B474C",
"j  c #754F4C",
"k  c #704C49",
"l  c #6C484C",
"z  c #664348",
"x  c #553649",
"c  c #67444A",
"v  c #714C49",
"b  c #684549",
"n  c #543549",
"m  c #704B48",
"M  c #68454A",
"N  c #764F4C",
"B  c #603E49",
"V  c #674448",
"C  c #6D484D",
"Z  c #66434D",
"A  c #603F49",
"S  c #55364A",
"D  c #55364B",
"F  c #4F314A",
"G  c #533449",
"H  c #482D46",
"J  c #482C46",
"K  c #492D46",
"L  c #41273E",
"P  c #40273E",
"I  c #40273F",
"U  c #41273F",
"Y  c #41283F",
"T  c #3D253B",
"R  c #3C2439",
"E  c #382235",
"W  c #372033",
"Q  c #372032",
"!  c #3E253C",
"~  c #392235",
"^  c #2F1B28",
"/  c #2A1721",
"(  c #2B1722",
")  c #2A1722",
"_  c #392236",
"`  c #331D2D",
"'  c #29161F",
"]  c #241219",
"[  c #241319",
"{  c #26141B",
"}  c #3C243A",
"|  c #301B28",
" . c #251319",
".. c #25131A",
"X. c #291620",
"o. c #301B29",
"O. c #3E263D",
"+. c #372133",
"@. c #241218",
"#. c #2B1822",
"$. c #2B1823",
"%. c #382134",
"&. c #341E2F",
"*. c #2E1A27",
"=. c #351F30",
"-. c #331E2D",
";. c #2A1620",
":. c #26141C",
">. c #2D1926",
",. c #341F2F",
"<. c #2E1A26",
"1. c #331E2E",
"2. c #351F2F",
"3. c #2A1720",
"4. c white",
/* pixels */
"        . . . . . . . .                 . . . . . . . .         ",
"    . X o O O O O O + o X .         @ X o O O O O O + o X .     ",
"  . # $ % & & * * & & % $ # .     . . $ = & & * * & & % $ # .   ",
"  X $ - ; : > > > , < 1 2 $ X     3 4 5 6 : : > > , < 1 2 $ X   ",
". o % ; 7 8 8 8 8 9 : 0 1 % o . . q w e r 8 8 8 8 9 : 0 1 % o . ",
". O & : 8 t y y y u i : < p O # . a s d f y y y y u i : < & O . ",
". O & : 8 y y y y y u 9 , & O # . a s d f y y y y y u 9 , & O . ",
". g h j k y y y y y y k j l g . . a z d f y y y y y y k j h g . ",
". x c v d y y y y y y d k b x . . a z d f y y y y y y d v c x . ",
". n z d d f f f f y y m v M x . . a s d d f f f f f f d d z n . ",
". n s d d d d d d d d v N l g # . a s m d d d d d d d d d s n . ",
"@ q B V s s s s s s s M C Z o . . q A V s s s s s s s s V B q @ ",
"  X q x x x x x x x a S + D F     X G x x x x x x x x x x q X   ",
"H J J J J J J J J J J J J J H K K K J J J J J J J J J J J J J H ",
"L P P I U U U U U U U U U U Y Y Y Y Y U U U U U U U U U I P P L ",
"T T T R E W W W W W W W Q Q W W W W W W W W W W W W W E R T T T ",
"T T ! ~ ^ / / ( ( ( ( ) / / ) ( ( ( ( ( ( ( ( ( ( / / ^ ~ ! T T ",
"T R _ ` ' ] ] [ [ [ ] { ' ' { ] [ [ [ [ [ [ [ [ [ ] ] ' ` _ } ! ",
"! ~ | ' {  . .....[ ] X.` ` X.] [ ................ . .{ ' o._ O.",
"O.+./ @.] ........] ] #.E ~ $.] [ ....................] ] X.` +.",
"O.%.( @.] [ [ [ [ ] @.( E ~ $.] ] [ [ [ [ [ [ [ [ [ [ [ [ { ' / ",
"+.&.*.( ( #.#.#.#.( ( *.=.-.X.{ X.$.$.#.#.#.#.#.#.$.$.;.:.:.X.( ",
"/ >.,.%.%.%.%.%.%.%.%.=.<.' { X.-.%.%.%.%.%.%.%.%.%.%.` X.X.` %.",
"/ <.,.%.%.%.%.%.%.%.%.-.X.@.] ;.1.%.%.%.%.%.%.%.%.%.%.` X.X.-.E ",
"%.2.*.( ( #.#.#.#.$.$.;.:.[ ..:.3.$.$.#.#.#.#.#.#.$.$.;.:.:.;.$.",
"E 1.X.] ] [ [ [ [ [ [  ......... .[ [ [ [ [ [ [ [ [ [  ..... .[ ",
"$.;.:.[  ..................................................... .",
"[  .............................................................",
" ...............................................................",
"................................................................",
"................................................................",
"................................................................"
};
