/* XPM */
static char *result[] = {
/* columns rows colors chars-per-pixel */
"32 32 81 1 ",
"  c #25131A",
". c #241219",
"X c #231218",
"o c #2D1924",
"O c #41273D",
"+ c #4C2F4A",
"@ c #4B2F4A",
"# c #4B2E49",
"$ c #4C2F49",
"% c #27141C",
"& c #2B1722",
"* c #38212E",
"= c #4D3042",
"- c #57374B",
"; c #55364A",
": c #553649",
"> c #56374A",
", c #57374A",
"< c #54354A",
"1 c #4E3149",
"2 c #251319",
"3 c #241319",
"4 c #2B1822",
"5 c #3A2234",
"6 c #63414A",
"7 c #6C484D",
"8 c #68454A",
"9 c #674449",
"0 c #6B474C",
"q c #6D494E",
"w c #6E494E",
"e c #65424C",
"r c #2E1926",
"t c #42283E",
"y c #58384C",
"u c #6D494D",
"i c #764F4C",
"p c #714C49",
"a c #754F4C",
"s c #77504E",
"d c #77504D",
"f c #78514E",
"g c #7A524F",
"h c #56374B",
"j c #69464B",
"k c #704B48",
"l c #6F4B48",
"z c #704C49",
"x c #714C4A",
"c c #744E4B",
"v c #2E1925",
"b c #664449",
"n c #6E4A48",
"m c #6F4A48",
"M c #724D4A",
"N c #77514E",
"B c #53354A",
"V c #603F49",
"C c #664448",
"Z c #664348",
"A c #6C484C",
"S c #65424D",
"D c #2E1A25",
"F c #4F314A",
"G c #53344A",
"H c #543649",
"J c #543549",
"K c #4F3149",
"L c #43283E",
"P c #4D2F4A",
"I c #4A2E49",
"U c #50324B",
"Y c #55364B",
"T c #66434D",
"R c #674549",
"E c #42273E",
"W c #57384B",
"Q c #69464A",
"! c #684549",
"~ c #4F324A",
"^ c white",
/* pixels */
"                 .XoO+@#######$$",
"                 %&*=-;:>---,<1$",
"               2345=67890qqwwe<#",
"               3.rtyuippasdfgw,#",
"               3.rthjpklzxxcfw-#",
"               3.vt;blnnnnnxdq-#",
"               3.vt;blnnnnnxdq-#",
"               3.vt;blmnnnnxdq-#",
"               3.vt;blmnnnnxdq-#",
"               3.vt;blmnnnnxdq-#",
"               3.vt;blmnnnnxdq-#",
"               3.vt;9llmmnnMNw-#",
"               3.vt;9kllllmMfw-#",
"               3.vtBVCCZZZZ8AS<#",
"               3.DtFGHHHHJJ:><K$",
"               3.DLP@######II#$$",
"               3.DLP@I###IIII#$$",
"               3.DtUY>::>----<K$",
"               3.vtYTA8RAwwwwe<#",
"               3.vEWuippasdfgw,#",
"               3.vt>Qpklzxxcfw-#",
"               3.vt;blnnnnnxdq-#",
"               3.vt;blnnnnnxdq-#",
"               3.vt;blmnnnnxdq-#",
"               3.vt;blmnnnnxdq-#",
"               3.vt;blnnnnnxdq-#",
"               3.vt;blnnnnnxdq-#",
"               3.vt>Qpklzxxcfw-#",
"               3.vEWuippasdfgw,#",
"               3.vtYTA!90qqwwe<#",
"               3.Dt~Y>::>---,<1$",
"               3.DLP+#########$$"
};
