/* XPM */
static char *result[] = {
/* columns rows colors chars-per-pixel */
"32 32 107 2 ",
"   c #4C2F49",
".  c #4B2E49",
"X  c #4C2F4A",
"o  c #4D2F4A",
"O  c #43283E",
"+  c #2E1A25",
"@  c #241219",
"#  c #241319",
"$  c #25131A",
"%  c #4E3049",
"&  c #523449",
"*  c #553649",
"=  c #56374A",
"-  c #57374B",
";  c #4F314A",
":  c #42283E",
">  c #5F3E48",
",  c #684549",
"<  c #6B474C",
"1  c #6D494E",
"2  c #6C484C",
"3  c #5F3E49",
"4  c #53344A",
"5  c #2E1925",
"6  c #543549",
"7  c #664348",
"8  c #724D4A",
"9  c #77514D",
"0  c #79524F",
"q  c #77514E",
"w  c #77504D",
"e  c #77504E",
"r  c #76504D",
"t  c #734E4B",
"y  c #69464A",
"u  c #654348",
"i  c #714C4A",
"p  c #6D484D",
"a  c #57384B",
"s  c #42273E",
"d  c #67444A",
"f  c #734D4B",
"g  c #754F4D",
"h  c #744E4C",
"j  c #704B49",
"k  c #6D4A48",
"l  c #6E4A4F",
"z  c #58384C",
"x  c #764F4D",
"c  c #724D4B",
"v  c #6E4A48",
"b  c #754F4C",
"n  c #704C49",
"m  c #6C484D",
"M  c #67454A",
"N  c #714C49",
"B  c #6F4B48",
"V  c #68454A",
"C  c #6F4A48",
"Z  c #674449",
"A  c #55364A",
"S  c #664448",
"D  c #56364A",
"F  c #4B2F49",
"G  c #603E49",
"H  c #674448",
"J  c #5F3F49",
"K  c #513348",
"L  c #3F263B",
"P  c #2D1925",
"I  c #4E3149",
"U  c #503347",
"Y  c #472C42",
"T  c #3A2236",
"R  c #2C1823",
"E  c #251319",
"W  c #492D46",
"Q  c #482C46",
"!  c #482D47",
"~  c #442A42",
"^  c #3B2338",
"/  c #321D2C",
"(  c #291620",
")  c #41283F",
"_  c #41273F",
"`  c #412840",
"'  c #301B28",
"]  c #28151F",
"[  c #26141B",
"{  c #372033",
"}  c #372133",
"|  c #341E2F",
" . c #2D1926",
".. c #29161F",
"X. c #2B1722",
"o. c #2A1722",
"O. c #2A1721",
"+. c #2E1A26",
"@. c #331D2D",
"#. c #241218",
"$. c #382134",
"%. c #2B1823",
"&. c #2A1620",
"*. c #26141C",
"=. c #382235",
"-. c #331E2E",
";. c white",
/* pixels */
"    . . . . . . . . . X o O + @ # $ $ $ $ $ $ $ $ $ $ $ $ $ $ $ ",
"  % & * = = - - - = * & ; : + @ # $ $ $ $ $ $ $ $ $ $ $ $ $ $ $ ",
". & > , < 1 1 1 1 2 , 3 4 : 5 @ # $ $ $ $ $ $ $ $ $ $ $ $ $ $ $ ",
". 6 7 8 9 0 q w e r t y = : 5 @ # $ $ $ $ $ $ $ $ $ $ $ $ $ $ $ ",
". 6 u 8 e q t i i t r p a s 5 @ # $ $ $ $ $ $ $ $ $ $ $ $ $ $ $ ",
". * d f g h j k k i e l z s 5 @ # $ $ $ $ $ $ $ $ $ $ $ $ $ $ $ ",
". = < x c j v v v i e l z s 5 @ # $ $ $ $ $ $ $ $ $ $ $ $ $ $ $ ",
". = < b n v v v v n b m a s 5 @ # $ $ $ $ $ $ $ $ $ $ $ $ $ $ $ ",
". * M N B v v v v B N V = : 5 @ # $ $ $ $ $ $ $ $ $ $ $ $ $ $ $ ",
". 6 7 B B C C C C B B Z A : 5 @ # $ $ $ $ $ $ $ $ $ $ $ $ $ $ $ ",
". 6 S B B B B B B B B Z D : 5 @ # $ $ $ $ $ $ $ $ $ $ $ $ $ $ $ ",
"F & G H S S S S S S Z J K L P @ # $ $ $ $ $ $ $ $ $ $ $ $ $ $ $ ",
"  I & * * * * * * * * U Y T R # E $ $ $ $ $ $ $ $ $ $ $ $ $ $ $ ",
"W W Q Q Q Q Q Q Q Q ! ~ ^ / ( E $ $ $ $ $ $ $ $ $ $ $ $ $ $ $ $ ",
") ) ) _ _ _ _ _ _ ` ` ^ ' ] [ $ $ $ $ $ $ $ $ $ $ $ $ $ $ $ $ $ ",
"{ { { { { { { { { } } |  ...[ $ $ $ $ $ $ $ $ $ $ $ $ $ $ $ $ $ ",
"X.X.X.X.X.X.X.X.X.o.O.+.| @.( E $ $ $ $ $ $ $ $ $ $ $ $ $ $ $ $ ",
"# # # # # # # # # @ #.X.$.$.%.# $ $ $ $ $ $ $ $ $ $ $ $ $ $ $ $ ",
"$ $ $ $ $ $ $ $ $ @ @ X.$.$.%.# $ $ $ $ $ $ $ $ $ $ $ $ $ $ $ $ ",
"$ $ $ $ $ $ $ $ $ $ # %.$.$.%.# $ $ $ $ $ $ $ $ $ $ $ $ $ $ $ $ ",
"$ $ $ $ $ $ $ $ $ $ # %.$.$.%.# $ $ $ $ $ $ $ $ $ $ $ $ $ $ $ $ ",
"$ $ $ $ $ $ $ $ $ $ E &.@.@.&.E $ $ $ $ $ $ $ $ $ $ $ $ $ $ $ $ ",
"$ $ $ $ $ $ $ $ $ $ $ *.( ( *.$ $ $ $ $ $ $ $ $ $ $ $ $ $ $ $ $ ",
"$ $ $ $ $ $ $ $ $ $ $ *.( ( *.$ $ $ $ $ $ $ $ $ $ $ $ $ $ $ $ $ ",
"$ $ $ $ $ $ $ $ $ $ E &.@.@.&.E $ $ $ $ $ $ $ $ $ $ $ $ $ $ $ $ ",
"$ $ $ $ $ $ $ $ $ E # %.=.=.%.# E $ $ $ $ $ $ $ $ $ $ $ $ $ $ $ ",
"$ $ $ $ $ $ $ $ $ E # %.=.=.%.# E $ $ $ $ $ $ $ $ $ $ $ $ $ $ $ ",
"$ $ $ $ $ $ $ $ $ $ E &.-.-.&.E $ $ $ $ $ $ $ $ $ $ $ $ $ $ $ $ ",
"$ $ $ $ $ $ $ $ $ $ $ *.&.&.*.$ $ $ $ $ $ $ $ $ $ $ $ $ $ $ $ $ ",
"$ $ $ $ $ $ $ $ $ $ $ $ E E $ $ $ $ $ $ $ $ $ $ $ $ $ $ $ $ $ $ ",
"$ $ $ $ $ $ $ $ $ $ $ $ $ $ $ $ $ $ $ $ $ $ $ $ $ $ $ $ $ $ $ $ ",
"$ $ $ $ $ $ $ $ $ $ $ $ $ $ $ $ $ $ $ $ $ $ $ $ $ $ $ $ $ $ $ $ "
};
