/* XPM */
static char *_3ed73ad25824d56ef8cc37a3dfa3dddp3lG4hMeiLiWzBX8[] = {
/* columns rows colors chars-per-pixel */
"16 16 5 1 ",
"  c #25131A",
". c #3D253B",
"X c #4C2F49",
"o c #6E4A48",
"O c #78514F",
/* pixels */
"XXXXXXXXXXXXXXXX",
"XXOOOOXXXXOOOOXX",
"XOoooOOXXooooOOX",
"XOooooOXXoooooOX",
"XooooooXXooooooX",
"XoooooOXXooooooX",
"XXXXXXXXXXXXXXXX",
"................",
"..            ..",
".     .        .",
".     .         ",
" .....  ...... .",
".               ",
"                ",
"                ",
"                "
};
