/* XPM */
static char *result[] = {
/* columns rows colors chars-per-pixel */
"32 32 41 1 ",
"  c #1E0D18",
". c #1F0D18",
"X c #1F0E18",
"o c #200F18",
"O c #200F19",
"+ c #462E23",
"@ c #472F23",
"# c #493023",
"$ c #493124",
"% c #4A3124",
"& c #4D3526",
"* c #553E2B",
"= c #563E2B",
"- c #5A422E",
"; c #805E32",
": c #825F33",
"> c #977138",
", c #977139",
"< c #987239",
"1 c #997239",
"2 c #997339",
"3 c #9B743A",
"4 c #9C753A",
"5 c #A57F40",
"6 c #A78141",
"7 c #BE994F",
"8 c #BF9A4F",
"9 c #C49644",
"0 c #C59745",
"q c #CA9C48",
"w c #CE9F49",
"e c #D2A44D",
"r c #D2A54D",
"t c #D5A74D",
"y c #D6A84E",
"u c #D7A94F",
"i c #CBA857",
"p c #EBBF5C",
"a c #EEC15C",
"s c #F9CD64",
"d c None",
/* pixels */
"dddddddddddddddddddddddddddddddd",
"dddddddddddddddddddddddddddddddd",
"dddddddddddddddddddddddddddddddd",
"dddddddddddddddddddddddddddddddd",
"dddddddddddddddddddddddddddddddd",
"dddddddddddddddddddddddddddddddd",
"ddddddddddddddOOOOdddddddddddddd",
"dddddddddddddd@%$+dddddddddddddd",
"ddddddddddddO@:43;+Odddddddddddd",
"ddddddddddddO%3wy6&odddddddddddd",
"ddddddddddddO$2ta8*Xdddddddddddd",
"ddddddddddddO#,usi- dddddddddddd",
"ddddddddddddO#,usi- dddddddddddd",
"ddddddddddddO#<rp7=.dddddddddddd",
"ddddddddddddO$1qe5&odddddddddddd",
"ddddddddddddO%209>$Odddddddddddd",
"ddddddddddddO%209>$Odddddddddddd",
"ddddddddddddO$1qe5&odddddddddddd",
"ddddddddddddO#<rp7=.dddddddddddd",
"ddddddddddddO#,usi- dddddddddddd",
"ddddddddddddO#,usi- dddddddddddd",
"ddddddddddddO$2ta8*Xdddddddddddd",
"ddddddddddddO%3wy6&odddddddddddd",
"ddddddddddddO@:43;+Odddddddddddd",
"dddddddddddddd@%$+dddddddddddddd",
"ddddddddddddddOOOOdddddddddddddd",
"dddddddddddddddddddddddddddddddd",
"dddddddddddddddddddddddddddddddd",
"dddddddddddddddddddddddddddddddd",
"dddddddddddddddddddddddddddddddd",
"dddddddddddddddddddddddddddddddd",
"dddddddddddddddddddddddddddddddd"
};
