/* XPM */
static char *_9140a98887d401897596d34062d70e6msrYwV6IfEPb7cfU[] = {
/* columns rows colors chars-per-pixel */
"16 16 5 1 ",
"  c #25131A",
". c #3D253B",
"X c #4C2F49",
"o c #6E4A48",
"O c #78514F",
/* pixels */
"XXXXXXX         ",
"XoOOOoX         ",
"XoOooOX         ",
"XOoooOX         ",
"XoooooX         ",
"XoooooX         ",
"XXXXXX.         ",
"......          ",
"      .         ",
"      .         ",
"      .         ",
"                ",
"      .         ",
"      .         ",
"                ",
"                "
};
