/* XPM */
static char *result[] = {
/* columns rows colors chars-per-pixel */
"32 32 107 2 ",
"   c #25131A",
".  c #241319",
"X  c #241219",
"o  c #2E1A25",
"O  c #43283E",
"+  c #4D2F4A",
"@  c #4C2F4A",
"#  c #4B2E49",
"$  c #4C2F49",
"%  c #42283E",
"&  c #4F314A",
"*  c #523449",
"=  c #553649",
"-  c #56374A",
";  c #57374B",
":  c #4E3049",
">  c #2E1925",
",  c #53344A",
"<  c #5F3E49",
"1  c #684549",
"2  c #6C484C",
"3  c #6D494E",
"4  c #6B474C",
"5  c #5F3E48",
"6  c #69464A",
"7  c #734E4B",
"8  c #76504D",
"9  c #77504E",
"0  c #77504D",
"q  c #77514E",
"w  c #79524F",
"e  c #77514D",
"r  c #724D4A",
"t  c #664348",
"y  c #543549",
"u  c #42273E",
"i  c #57384B",
"p  c #6D484D",
"a  c #714C4A",
"s  c #654348",
"d  c #58384C",
"f  c #6E4A4F",
"g  c #6D4A48",
"h  c #704B49",
"j  c #744E4C",
"k  c #754F4D",
"l  c #734D4B",
"z  c #67444A",
"x  c #6E4A48",
"c  c #724D4B",
"v  c #764F4D",
"b  c #6C484D",
"n  c #754F4C",
"m  c #704C49",
"M  c #68454A",
"N  c #714C49",
"B  c #6F4B48",
"V  c #67454A",
"C  c #55364A",
"Z  c #674449",
"A  c #6F4A48",
"S  c #56364A",
"D  c #664448",
"F  c #2D1925",
"G  c #3F263B",
"H  c #513348",
"J  c #5F3F49",
"K  c #674448",
"L  c #603E49",
"P  c #4B2F49",
"I  c #251319",
"U  c #2C1823",
"Y  c #3A2236",
"T  c #472C42",
"R  c #503347",
"E  c #4E3149",
"W  c #291620",
"Q  c #321D2C",
"!  c #3B2338",
"~  c #442A42",
"^  c #482D47",
"/  c #482C46",
"(  c #492D46",
")  c #26141B",
"_  c #28151F",
"`  c #301B28",
"'  c #412840",
"]  c #41273F",
"[  c #41283F",
"{  c #29161F",
"}  c #2D1926",
"|  c #341E2F",
" . c #372133",
".. c #372033",
"X. c #331D2D",
"o. c #2E1A26",
"O. c #2A1721",
"+. c #2A1722",
"@. c #2B1722",
"#. c #2B1823",
"$. c #382134",
"%. c #241218",
"&. c #2A1620",
"*. c #26141C",
"=. c #382235",
"-. c #331E2E",
";. c white",
/* pixels */
"                              . X o O + @ # # # # # # # # # $ $ ",
"                              . X o % & * = - ; ; ; - - = * : $ ",
"                              . X > % , < 1 2 3 3 3 3 4 1 5 * # ",
"                              . X > % - 6 7 8 9 0 q w e r t y # ",
"                              . X > u i p 8 7 a a 7 q 9 r s y # ",
"                              . X > u d f 9 a g g h j k l z = # ",
"                              . X > u d f 9 a x x x h c v 4 - # ",
"                              . X > u i b n m x x x x m n 4 - # ",
"                              . X > % - M N B x x x x B N V = # ",
"                              . X > % C Z B B A A A A B B t y # ",
"                              . X > % S Z B B B B B B B B D y # ",
"                              . X F G H J Z D D D D D D K L * P ",
"                              I . U Y T R = = = = = = = = * E $ ",
"                                I W Q ! ~ ^ / / / / / / / / ( ( ",
"                                  ) _ ` ! ' ' ] ] ] ] ] ] [ [ [ ",
"                                  ) { } |  . ...................",
"                                I W X.| o.O.+.@.@.@.@.@.@.@.@.@.",
"                                . #.$.$.@.%.X . . . . . . . . . ",
"                                . #.$.$.@.X X                   ",
"                                . #.$.$.#..                     ",
"                                . #.$.$.#..                     ",
"                                I &.X.X.&.I                     ",
"                                  *.W W *.                      ",
"                                  *.W W *.                      ",
"                                I &.X.X.&.I                     ",
"                              I . #.=.=.#.. I                   ",
"                              I . #.=.=.#.. I                   ",
"                                I &.-.-.&.I                     ",
"                                  *.&.&.*.                      ",
"                                    I I                         ",
"                                                                ",
"                                                                "
};
