/* XPM */
static char *result[] = {
/* columns rows colors chars-per-pixel */
"32 32 133 2 ",
"   c #1F0F18",
".  c #201018",
"X  c #211018",
"o  c #211119",
"O  c #221118",
"+  c #221119",
"@  c #231119",
"#  c #231219",
"$  c #241219",
"%  c #24121A",
"&  c #24131A",
"*  c #25131A",
"=  c #2A171C",
"-  c #2D181C",
";  c #311D23",
":  c #361F21",
">  c #372022",
",  c #3A2223",
"<  c #3B2323",
"1  c #392124",
"2  c #3C2324",
"3  c #3C2424",
"4  c #3D2424",
"5  c #402322",
"6  c #422422",
"7  c #412625",
"8  c #422625",
"9  c #482825",
"0  c #492825",
"q  c #492925",
"w  c #4A2925",
"e  c #4B2925",
"r  c #4B2A26",
"t  c #442B2B",
"y  c #452B2B",
"u  c #503637",
"i  c #5B3933",
"p  c #5D3B32",
"a  c #5C3C37",
"s  c #553939",
"d  c #563A39",
"f  c #664339",
"g  c #6F4638",
"h  c #6F483A",
"j  c #7F4836",
"k  c #704739",
"l  c #704839",
"z  c #70483A",
"x  c #71493B",
"c  c #72493B",
"v  c #724A3C",
"b  c #744C3D",
"n  c #784E3F",
"m  c #7D4E3C",
"M  c #7F4F3D",
"N  c #5F4240",
"B  c #5F4241",
"V  c #604443",
"C  c #795040",
"Z  c #7B5041",
"A  c #7B5142",
"S  c #7E5545",
"D  c #7C594F",
"F  c #92563E",
"G  c #95573F",
"H  c #9B583E",
"J  c #9B593F",
"K  c #9C593F",
"L  c #875742",
"P  c #875843",
"I  c #875943",
"U  c #885842",
"Y  c #885843",
"T  c #885943",
"R  c #8C5B44",
"E  c #8D5B44",
"W  c #8C5B45",
"Q  c #8D5C45",
"!  c #8D5D47",
"~  c #8E5D47",
"^  c #9B5A41",
"/  c #976047",
"(  c #996147",
")  c #996148",
"_  c #9B6248",
"`  c #9B6249",
"'  c #98654E",
"]  c #9A664E",
"[  c #816359",
"{  c #8F695B",
"}  c #8C6B5F",
"|  c #986650",
" . c #996751",
".. c #9A6653",
"X. c #916857",
"o. c #916858",
"O. c #9E6E5C",
"+. c #B26B4B",
"@. c #B46A49",
"#. c #B46B4A",
"$. c #B76C4B",
"%. c #B76D4B",
"&. c #B46C4C",
"*. c #B76E4D",
"=. c #AE735B",
"-. c #B1755C",
";. c #8D6C60",
":. c #8F6E61",
">. c #957161",
",. c #907165",
"<. c #917366",
"1. c #967567",
"2. c #937468",
"3. c #937B78",
"4. c #B57860",
"5. c #B17B64",
"6. c #B37D66",
"7. c #C26F4A",
"8. c #C1704B",
"9. c #C1714D",
"0. c #9A807B",
"q. c #9B807C",
"w. c #9A817E",
"e. c #B9826B",
"r. c #938F96",
"t. c #949097",
"y. c #A39897",
"u. c #AA9C99",
"i. c #AB9D9A",
"p. c #ABA09F",
"a. c #9FA3AA",
"s. c #A0A4AB",
"d. c None",
/* pixels */
"d.d.d.d.d.d.9.9.9.9.d.d.d.d.d.d.d.d.d.d.d.d.9.9.9.9.d.d.d.d.d.d.",
"d.d.d.d.d.d.+.+.+.+.d.d.d.d.d.d.d.d.d.d.d.d.+.+.+.+.d.d.d.d.d.d.",
"d.d.d.d.d.d./ / / / d.d.d.d.d.d.d.d.d.d.d.d./ / / / d.d.d.d.d.d.",
"d.d.d.d.d.d.I T P P d.d.d.d.d.d.d.d.d.d.d.d.P P T I d.d.d.d.d.d.",
"d.d.d.d.d.d.Y Y U L d.d.d.d.d.d.d.d.d.d.d.d.L U Y Y d.d.d.d.d.d.",
"d.d.d.d.d.d.{ } ,.1.d.d.d.d.d.d.d.d.d.d.d.d.1.,.} { d.d.d.d.d.d.",
"* # o e K 4.w.r.a.p.e.7.8.9.9.9.9.9.9.8.7.e.p.a.r.w.4.K e o # * ",
"* # + 9 F =.0.t.s.u.5.@.#.&.&.&.&.&.&.#.@.5.u.s.t.0.=.F 9 + # * ",
"* # + 7 m ' X.;.<.>.| ( ) ) ) ) ) ) ) ) ( | >.<.;.X.' m 7 + # * ",
"* % # > p b C A Z n v h h z z z z z z h h v n Z A C b p > # % * ",
"* * & = : y d B N s t 2 2 3 3 3 3 3 3 2 2 t s N B d y : = & * * ",
"* * * $ O ; u V V u ; X O @ @ @ @ @ @ O X ; u V V u ; O $ * * * ",
"* * * # + 1 f S S f 1 X + $ $ $ $ $ $ + X 1 f S S f 1 + # * * * ",
"* * * $ @ 4 c ~ ~ c 4 @ $ * * * * * * $ @ 4 c ~ ~ c 4 @ $ * * * ",
"* * * $ @ 4 x ~ ~ x 4 @ $ * * * * * * $ @ 4 x ~ ~ x 4 @ $ * * * ",
"* * * $ @ 4 x ! ! x 4 @ $ * * * * * * $ @ 4 x ! ! x 4 @ $ * * * ",
"* * * $ @ 4 x ! ! x 4 @ $ * * * * * * $ @ 4 x ! ! x 4 @ $ * * * ",
"* * * $ @ 4 x ! ! x 4 @ $ * * * * * * $ @ 4 x ! ! x 4 @ $ * * * ",
"* * * $ @ 4 x ! ! x 4 @ $ * * * * * * $ @ 4 x ! ! x 4 @ $ * * * ",
"* * * # X < l Q W k < . o # # # # # # o . < k W Q l < X # * * * ",
"* * * @ . , k E R g ,   . o o o o o o .   , g R E k , . @ * * * ",
"* & % - 5 i D :.2.[ a 0 w r r r r r r w 0 a [ 2.:.D i 5 - % & * ",
"* # + 6 j ..3.t.s.y.O.H J ^ ^ ^ ^ ^ ^ J H O.y.s.t.3...j 6 + # * ",
"* # + q G -.q.t.s.i.6.$.%.*.*.*.*.*.*.%.$.6.i.s.t.q.-.G q + # * ",
"* # + 8 M ] o.;.<.>. ._ _ ` ` ` ` ` ` _ _  .>.<.;.o.] M 8 + # * ",
"* % # > p b C A Z n v h h z z z z z z h h v n Z A C b p > # % * ",
"* * & = : y d B N s t 2 2 3 3 3 3 3 3 2 2 t s N B d y : = & * * ",
"* * * $ O ; u V V u ; X O @ @ @ @ @ @ O X ; u V V u ; O $ * * * ",
"* * * # + 1 f S S f 1 X + $ $ $ $ $ $ + X 1 f S S f 1 + # * * * ",
"* * * $ @ 4 c ~ ~ c 4 @ $ * * * * * * $ @ 4 c ~ ~ c 4 @ $ * * * ",
"* * * $ @ 4 x ~ ~ x 4 @ $ * * * * * * $ @ 4 x ~ ~ x 4 @ $ * * * ",
"* * * $ @ 4 x ! ! x 4 @ $ * * * * * * $ @ 4 x ! ! x 4 @ $ * * * "
};
