/* XPM */
static char *result[] = {
/* columns rows colors chars-per-pixel */
"32 32 121 2 ",
"   c #231118",
".  c #231119",
"X  c #231218",
"o  c #231219",
"O  c #241219",
"+  c #24131A",
"@  c #25131A",
"#  c #26141B",
"$  c #27151C",
"%  c #29161C",
"&  c #2B181F",
"*  c #2C1920",
"=  c #2D1920",
"-  c #2D1921",
";  c #2E1A21",
":  c #2E1A22",
">  c #2F1A22",
",  c #2F1B22",
"<  c #2F1B23",
"1  c #301B23",
"2  c #311C22",
"3  c #301C23",
"4  c #311C23",
"5  c #321D22",
"6  c #341E24",
"7  c #341F24",
"8  c #351F24",
"9  c #361F24",
"0  c #362024",
"q  c #362025",
"w  c #372025",
"e  c #362028",
"r  c #372129",
"t  c #382129",
"y  c #392228",
"u  c #3A2328",
"i  c #38222A",
"p  c #39222A",
"a  c #3D252B",
"s  c #3E262B",
"d  c #3F272C",
"f  c #3E272F",
"g  c #3F272F",
"h  c #442A2D",
"j  c #402730",
"k  c #412831",
"l  c #432A32",
"z  c #472D36",
"x  c #482E36",
"c  c #482E37",
"v  c #492E37",
"b  c #492F37",
"n  c #4A2F38",
"m  c #4E3234",
"M  c #4A3038",
"N  c #4B3039",
"B  c #4B3139",
"V  c #4C3139",
"C  c #4E3239",
"Z  c #4C313A",
"A  c #513435",
"S  c #503436",
"D  c #513436",
"F  c #50343A",
"G  c #51353B",
"H  c #52353B",
"J  c #50343D",
"K  c #51343E",
"L  c #51353E",
"P  c #52353E",
"I  c #52363E",
"U  c #56383F",
"Y  c #583A3C",
"T  c #5A3B3E",
"R  c #5B3C3C",
"E  c #5C3C3C",
"W  c #5C3C3D",
"Q  c #5C3D3D",
"!  c #5D3D3D",
"~  c #5D3E3E",
"^  c #5E3E3E",
"/  c #5E3E3F",
"(  c #5F3E3F",
")  c #5F3F3F",
"_  c #60403F",
"`  c #533740",
"'  c #543740",
"]  c #553740",
"[  c #543741",
"{  c #553841",
"}  c #563841",
"|  c #563842",
" . c #563942",
".. c #573942",
"X. c #593B42",
"o. c #5A3B43",
"O. c #5B3C42",
"+. c #5B3C43",
"@. c #5C3D43",
"#. c #614040",
"$. c #624140",
"%. c #614045",
"&. c #644344",
"*. c #654344",
"=. c #654346",
"-. c #6A4745",
";. c #684646",
":. c #694747",
">. c #6A4747",
",. c #6C4846",
"<. c #6B4848",
"1. c #6C4848",
"2. c #6D4A48",
"3. c #6F4B49",
"4. c #704B49",
"5. c #704C49",
"6. c #714C4A",
"7. c #714D4A",
"8. c #724D4A",
"9. c #734D4B",
"0. c None",
/* pixels */
"0.0.0.0.0.0.0.0.0.0.0.0.0.0.0.0.0.0.0.0.0.0.0.0.0.0.0.0.0.0.0.0.",
"0.0.0.0.0.0.0.0.0.0.0.0.0.0.0.0.0.0.0.0.0.0.0.0.0.0.0.0.0.0.0.0.",
"0.0.0.0.0.0.0.0.0.0.0.0.0.0.0.0.0.0.0.0.0.0.0.0.0.0.0.0.0.0.0.0.",
"0.0.0.0.0.0.0.0.0.0.0.0.0.0.0.0.0.0.0.0.0.0.0.0.0.0.0.0.0.0.0.0.",
"0.0.0.0.0.0.0.0.0.0.0.0.0.0.0.0.0.0.0.0.0.0.0.0.0.0.0.0.0.0.0.0.",
"0.0.0.0.0.0.0.0.0.0.0.0.0.0.0.0.0.0.0.0.0.0.0.0.0.0.0.0.0.0.0.0.",
"0.0.. . . . . . . . . . . . . . . . . . 0.0.0.0.0.0.0.0.0.0.0.0.",
"0.0.8 q q q q q q q q q q q q q q q q 8 0.0.0.0.0.0.0.0.0.0.0.0.",
". 8 A ! Q E E E E E E E E E E E E Q ! A 8 . 0.0.0.0.0.0.0.0.0.0.",
". w ! 9.8.6.4.4.4.5.6.6.5.5.6.6.6.8.9.! w . 0.0.0.0.0.0.0.0.0.0.",
". w ~ 9.8.5.3.3.3.4.6.6.4.4.6.6.6.8.9.~ w . 0.0.0.0.0.0.0.0.0.0.",
"o 5 m ! W _ -.2.>.&.^ / *.*.) R E Q ! m 5 o 0.0.0.0.0.0.0.0.0.0.",
"+ % 2 8 7 h #.1.%.F a s H H d 8 8 0 0 2 % + 0.0.0.0.0.0.0.0.0.0.",
"@ $ * : - a T =.o.n e r N V p : , < 1 = $ @ 0.0.0.0.0.0.0.0.0.0.",
"O - g c x V U X.} J n M L L B c v b n j - O 0.0.0.0.0.0.0.0.0.0.",
"O 3 b  .} { ' ` ' ' { { { P V c v b n j =   0.0.0.0.0.0.0.0.0.0.",
"O 3 v } { ' ' ' ' ' ] { | Z i : , 1 1 * # . . . . . . . 0.0.0.0.",
"O 1 x { { ' ' ' ' ' { P N l u 8 8 8 8 0 q w q q q q q 8 0.0.0.0.",
"O 1 x { { ' ' ' ' { } N r y S ! Q E E E Q Q W E E Q ! A 8 . 0.0.",
"O 3 v } { { { { { I Z l y h $.7.6.5.6.6.6.6.6.6.6.8.9.! w . 0.0.",
"O 3 v  .} { { }  .V i u D $.,.5.4.4.6.6.6.6.6.6.6.8.9.~ w . 0.0.",
"O , k v v x x v b f & 6 Y <.:.;.;.*.( R E E E E E Q ! m 5 o 0.0.",
"0.0., 3 3 1 1 3 3 * # 4 C @.+.O.+.G s 8 8 9 9 9 9 0 0 2 % + 0.0.",
"0.0.O O O O O O O X O 3 c [ ' ' [ N t ; : > > > > , , * $ @ 0.0.",
"0.0.0.0.0.0.0.0.0.0.o 1 x { ' ' ' K M z z x x x x c c g - O 0.0.",
"0.0.0.0.0.0.0.0.0.0.O 3 v } { { { { } } } } } } } ....b 3 O 0.0.",
"0.0.0.0.0.0.0.0.0.0.O 3 v  .} { { { } } } } } } } ....b 3 O 0.0.",
"0.0.0.0.0.0.0.0.0.0.O , k v v x x x x x x x x x x v v k , O 0.0.",
"0.0.0.0.0.0.0.0.0.0.0.0., 3 3 1 1 1 1 1 1 1 1 1 1 3 3 , 0.0.0.0.",
"0.0.0.0.0.0.0.0.0.0.0.0.O O O O O O O O O O O O O O O O 0.0.0.0.",
"0.0.0.0.0.0.0.0.0.0.0.0.0.0.0.0.0.0.0.0.0.0.0.0.0.0.0.0.0.0.0.0.",
"0.0.0.0.0.0.0.0.0.0.0.0.0.0.0.0.0.0.0.0.0.0.0.0.0.0.0.0.0.0.0.0."
};
