/* XPM */
static char *result[] = {
/* columns rows colors chars-per-pixel */
"32 32 9 1 ",
"  c None",
". c #543740",
"X c #1B0D13",
"o c #2E1A21",
"O c #492F36",
"+ c #382127",
"@ c #5D3D3E",
"# c #714C49",
"$ c #664444",
/* pixels */
"                                ",
"                                ",
"                                ",
"                                ",
"                                ",
"                                ",
"  XXXXXXXXXXXXXXXXXX            ",
" Xo++++++++++++++++oX           ",
"XoO@@@@@@@@@@@@@@@@OoX          ",
"X+@################@+X          ",
"X+@################$+X          ",
"X+O@@@$#$$@@$$@@@@@OoX          ",
"Xoo++O@#@.++..+++++ooX          ",
"Xoooo+@$@O++OO+ooooooX          ",
"Xo+OOO.@..OO..OOOOOOoX          ",
"XoO...........OOOOO+oX          ",
"X+O..........O+ooooooXXXXXXX    ",
"XoO.........OO+++++++++++++oX   ",
"XoO........O++.@@@@@@@@@@@@OoX  ",
"ooO.......OO+O$############@+X  ",
"XoO......O++.$#############$+X  ",
"Xo+OOOOOO+o+.$$$$$@@@@@@@@@OoX  ",
" Xooooo+ooooO@@@@.+++++++++ooX  ",
"  XXXXXXXXXoO....O+ooooooooooX  ",
"          XoO.....OOOOOOOOO+oX  ",
"         XXoO.............@OoX  ",
"          XoO..............OoX  ",
"          Xo+OOOOOOOOOOOOOO+oX  ",
"           Xoooooooooooo+o+oX   ",
"            XXXXXXXXXXXXXXXX    ",
"                                ",
"                                "
};
