/* XPM */
static char *result[] = {
/* columns rows colors chars-per-pixel */
"32 32 66 1 ",
"  c #4C2F49",
". c #4B2E49",
"X c #4C2F4A",
"o c #4D2F4A",
"O c #43283E",
"+ c #2E1A25",
"@ c #241219",
"# c #241319",
"$ c #25131A",
"% c #4E3149",
"& c #54354A",
"* c #56374A",
"= c #553649",
"- c #543549",
"; c #543649",
": c #53344A",
"> c #4F314A",
", c #42283E",
"< c #65424C",
"1 c #6C484C",
"2 c #68454A",
"3 c #654348",
"4 c #664348",
"5 c #664448",
"6 c #603F49",
"7 c #53354A",
"8 c #2E1925",
"9 c #57374B",
"0 c #6E494E",
"q c #78514E",
"w c #724D4A",
"e c #6F4A48",
"r c #6F4B48",
"t c #704B48",
"y c #674449",
"u c #55364A",
"i c #77514E",
"p c #6E4A48",
"a c #6D494E",
"s c #77504D",
"d c #714C4A",
"f c #664449",
"g c #744E4B",
"h c #704C49",
"j c #714C49",
"k c #69464A",
"l c #57374A",
"z c #7A524F",
"x c #77504E",
"c c #754F4C",
"v c #764F4C",
"b c #6D494D",
"n c #57384B",
"m c #42273E",
"M c #674549",
"N c #66434D",
"B c #55364B",
"V c #4F3149",
"C c #50324B",
"Z c #4A2E49",
"A c #4B2F4A",
"S c #65424D",
"D c #6B474C",
"F c #684549",
"G c #4F324A",
"H c white",
/* pixels */
"  .........XoO+@#$$$$$$$$$$$$$$$",
" %&*=-----;:>,+@#$$$$$$$$$$$$$$$",
".&<1233334567,8@#$$$$$$$$$$$$$$$",
".90qwerrrrtyu,8@#$$$$$$$$$$$$$$$",
".90iwppeerryu,8@#$$$$$$$$$$$$$$$",
".9asdpppperfu,8@#$$$$$$$$$$$$$$$",
".9asdpppperfu,8@#$$$$$$$$$$$$$$$",
".9asdpppperfu,8@#$$$$$$$$$$$$$$$",
".9asdpppperfu,8@#$$$$$$$$$$$$$$$",
".9asdppppprfu,8@#$$$$$$$$$$$$$$$",
".9asdppppprfu,8@#$$$$$$$$$$$$$$$",
".90qgddhrtjk*,8@#$$$$$$$$$$$$$$$",
".l0zqsxcjjvbnm8@#$$$$$$$$$$$$$$$",
".&<00001M21NB,8@#$$$$$$$$$$$$$$$",
" V&9999*==*BC,+@#$$$$$$$$$$$$$$$",
"  .ZZZZ...ZAoO+@#$$$$$$$$$$$$$$$",
"  .ZZ......AoO+@#$$$$$$$$$$$$$$$",
" V&*=--;;;;:>,+@#$$$$$$$$$$$$$$$",
".&S1244445567,8@#$$$$$$$$$$$$$$$",
".90qwerrrrtyu,8@#$$$$$$$$$$$$$$$",
".90iwppeerryu,8@#$$$$$$$$$$$$$$$",
".9asdpppperfu,8@#$$$$$$$$$$$$$$$",
".9asdpppperfu,8@#$$$$$$$$$$$$$$$",
".9asdpppperfu,8@#$$$$$$$$$$$$$$$",
".9asdpppperfu,8@#$$$$$$$$$$$$$$$",
".9asdppppprfu,8@#$$$$$$$$$$$$$$$",
".9asdppppprfu,8@#$$$$$$$$$$$$$$$",
".90qgddhrtjk*,8@#$$$$$$$$$$$$$$$",
".l0zqsxcjjvbnm8@#$$$$$$$$$$$$$$$",
".&<00aaDyF1NB,8@#$$$$$$$$$$$$$$$",
" %&l999*==*BG,+@#$$$$$$$$$$$$$$$",
"  .........XoO+@#$$$$$$$$$$$$$$$"
};
