/* XPM */
static char *result[] = {
/* columns rows colors chars-per-pixel */
"32 32 116 2 ",
"   c #1F0B11",
".  c #21080D",
"X  c #230E13",
"o  c #231016",
"O  c #25131A",
"+  c #2A1721",
"@  c #271921",
"#  c #2A1A23",
"$  c #2F1E2B",
"%  c #2D232E",
"&  c #2E2633",
"*  c #2F2936",
"=  c #2F2D3B",
"-  c #302A37",
";  c #312E3C",
":  c #30303E",
">  c #3C333C",
",  c #323443",
"<  c #343847",
"1  c #3F3B45",
"2  c #3F344A",
"3  c #363B4C",
"4  c #3A3B4B",
"5  c #3A3E51",
"6  c #433D46",
"7  c #433E48",
"8  c #3A4255",
"9  c #3D4459",
"0  c #3B4B5F",
"q  c #3E5167",
"w  c #3E546A",
"e  c #43404B",
"r  c #444552",
"t  c #49435F",
"y  c #4A4460",
"u  c #414E65",
"i  c #415367",
"p  c #43546B",
"a  c #44586D",
"s  c #4C5A6C",
"d  c #455770",
"f  c #4D5472",
"g  c #505F7E",
"h  c #49627F",
"j  c #5A6372",
"k  c #606774",
"l  c #4B6683",
"z  c #4A6B87",
"x  c #4A6E8B",
"c  c #516080",
"v  c #506C8B",
"b  c #4B718D",
"n  c #5B6F94",
"m  c #4E7391",
"M  c #4D7895",
"N  c #527595",
"B  c #527798",
"V  c #5A7499",
"C  c #517D9D",
"Z  c #6F7F8E",
"A  c #707F8D",
"S  c #5A7EA3",
"D  c #728494",
"F  c #758898",
"G  c #4F81A2",
"H  c #5285A5",
"J  c #5E80A7",
"K  c #5387A9",
"L  c #558AAC",
"P  c #5B89AF",
"I  c #568EB1",
"U  c #5C8EB3",
"Y  c #5791B4",
"T  c #5993B6",
"R  c #5D96BC",
"E  c #608EAA",
"W  c #6395B4",
"Q  c #659ABA",
"!  c #7C9CB1",
"~  c #7EA0B6",
"^  c #5E9EC5",
"/  c #609AC2",
"(  c #619FC8",
")  c #5FA4CB",
"_  c #61A5CD",
"`  c #61A7D0",
"'  c #62AAD3",
"]  c #6EAFD3",
"[  c #63AED8",
"{  c #6EB0D5",
"}  c #64B1DA",
"|  c #6FB6DD",
" . c #7BB5D5",
".. c #70B6DC",
"X. c #75BADF",
"o. c #69B7E1",
"O. c #74BBE1",
"+. c #87A1B2",
"@. c #89A2B3",
"#. c #8BA7B9",
"$. c #81A8BF",
"%. c #84AAC1",
"&. c #96B6C9",
"*. c #86B9D5",
"=. c #88BCD8",
"-. c #8BC1DD",
";. c #83C1E2",
":. c #8BC5E3",
">. c #8ECAE9",
",. c #9BCDE6",
"<. c #9ECFE8",
"1. c #9DD1EC",
"2. c #A7CFE4",
"3. c #A0D1EA",
"4. c #ABD6EB",
"5. c None",
/* pixels */
"5.5.5.5.5.5.5.5.5.5.5.5.5.5.5.5.5.5.5.5.5.5.5.5.5.5.5.5.5.5.5.5.",
"5.5.5.5.5.5.5.5.5.5.5.5.5.5.5.5.5.5.5.5.5.5.5.5.5.5.5.5.5.5.5.5.",
"5.5.5.5.5.5.5.5.5.5.X o 5.5.5.5.5.5.5.5.5.5.5.5.5.5.5.5.5.5.5.5.",
"5.5.5.5.5.5.5.5.5.5., , 5.5.5.5.5.5.5.5.5.5.5.5.5.5.5.5.5.5.5.5.",
"5.5.5.5.5.5.5.5.X < b b , . X X o X 5.5.5.5.5.5.5.5.5.5.5.5.5.5.",
"5.5.5.5.5.5.5.5.o < K R p , , < < , 5.5.5.5.5.5.5.5.5.5.5.5.5.5.",
"5.5.5.5.5.5.5.5.X < K ' Y H H H H z : X X X 5.5.5.5.5.5.5.5.5.5.",
"5.5.5.5.5.5.5.5.X , z Y _ } ..O.X.Q i , , , 5.5.5.5.5.5.5.5.5.5.",
"5.5.5.5.X X 5.5.5.5.; q L ..:.,.,.*.R G H b , X 5.5.5.5.5.5.5.5.",
"5.5.5.5., , 5.5.5.5.= i T =.<.4.4.<.;.O.| H < X 5.5.5.5.5.5.5.5.",
"5.5.X < b x :     , z W *.2.4.4.4.4.1.>.O.K < . 5.5.5.5.5.5.5.5.",
"5.5.X 4 W Q a , : w T {  .+.+.+.+.+.+.! E b 0 , 5.5.5.5.5.5.5.5.",
"5.5.X e ~ -.W G G I ' T s 7 6 6 e e 6 1 , 0 M m < X 5.5.5.5.5.5.",
"5.5.o > D %. .X.O.] T x 5 * = , : , : = * 8 m z : o 5.5.5.5.5.5.",
"5.5.O # > j $.1.1.%.s 3 p z C H H H H G z a 8 = # O 5.5.5.5.5.5.",
"5.5.O X   6 #.2.&.D r 3 m R ' } } } } ` R N 8 & O O 5.5.5.5.5.5.",
"5.5.5.5.  e #.&.j 5 d m R ` [ [ } } } ' ` R V u & o 5.5.5.5.5.5.",
"5.5.5.5.X 7 F Z > & c P R / / R L I ) ` ( U N u & o 5.5.5.5.5.5.",
"5.5.5.5.5.5.7 > # - l S n n n c 8 w I _ S c 5 * + O 5.5.5.5.5.5.",
"5.5.5.5.5.5.X X o ; l V f t t 6 # , H W c 6 # X o O 5.5.5.5.5.5.",
"5.5.5.5.5.5.5.5.X ; l v 4 $ $ + X , K Y 9 # O X O O 5.5.5.5.5.5.",
"5.5.5.5.5.5.5.5.O - a d 3 ; < , < i T T i : ; * # O 5.5.5.5.5.5.",
"5.5.5.5.5.5.5.5.5.5.- 3 d v C K H Y ) ` T H x i & o 5.5.5.5.5.5.",
"5.5.5.5.5.5.5.5.5.5.X * i N R ' } _ Y L ^ R N p = o 5.5.5.5.5.5.",
"5.5.5.5.5.5.5.5.5.5.5.5.- 8 N / ' T q 0 B B 9 * 5.5.5.5.5.5.5.5.",
"5.5.5.5.5.5.5.5.5.5.5.5.. - i x C x : & p p * X 5.5.5.5.5.5.5.5.",
"5.5.5.5.5.5.5.5.5.5.5.5.5.5.- : < , 5.5.- - 5.5.5.5.5.5.5.5.5.5.",
"5.5.5.5.5.5.5.5.5.5.5.5.5.5.o o X X 5.5.o o 5.5.5.5.5.5.5.5.5.5.",
"5.5.5.5.5.5.5.5.5.5.5.5.5.5.5.5.5.5.5.5.5.5.5.5.5.5.5.5.5.5.5.5.",
"5.5.5.5.5.5.5.5.5.5.5.5.5.5.5.5.5.5.5.5.5.5.5.5.5.5.5.5.5.5.5.5.",
"5.5.5.5.5.5.5.5.5.5.5.5.5.5.5.5.5.5.5.5.5.5.5.5.5.5.5.5.5.5.5.5.",
"5.5.5.5.5.5.5.5.5.5.5.5.5.5.5.5.5.5.5.5.5.5.5.5.5.5.5.5.5.5.5.5."
};
