/* XPM */
static char *result[] = {
/* columns rows colors chars-per-pixel */
"32 32 199 2 ",
"   c #4C2F49",
".  c #4B2E49",
"X  c #4E304C",
"o  c #553554",
"O  c #4A2E49",
"+  c #553453",
"@  c #593757",
"#  c #583656",
"$  c #4E3149",
"%  c #523449",
"&  c #543649",
"*  c #543549",
"=  c #57374B",
"-  c #5C3A51",
";  c #543548",
":  c #56374B",
">  c #5C3A50",
",  c #5E3C53",
"<  c #5E3B53",
"1  c #5F3E48",
"2  c #664448",
"3  c #664348",
"4  c #654348",
"5  c #664449",
"6  c #68454B",
"7  c #69454C",
"8  c #6F4B48",
"9  c #6F4A48",
"0  c #6E4A48",
"q  c #553649",
"w  c #68454A",
"e  c #724D4A",
"r  c #714C4A",
"t  c #56374A",
"y  c #6C484D",
"u  c #77514E",
"i  c #77504E",
"p  c #76504E",
"a  c #472C45",
"s  c #523447",
"d  c #66434A",
"f  c #704C4C",
"g  c #704B4C",
"h  c #513447",
"j  c #472B45",
"k  c #40273E",
"l  c #472D40",
"z  c #563842",
"x  c #5D3E44",
"c  c #5D3D44",
"v  c #5E3E44",
"b  c #472C3F",
"n  c #3F263E",
"m  c #3C243B",
"M  c #42293C",
"N  c #4E323E",
"B  c #543740",
"V  c #533640",
"C  c #533740",
"Z  c #4F333F",
"A  c #452B3F",
"S  c #4E323F",
"D  c #513441",
"F  c #4B2F44",
"G  c #482C46",
"H  c #3D253B",
"J  c #42293D",
"K  c #4C313F",
"L  c #523640",
"P  c #4F3342",
"I  c #4B2F45",
"U  c #482D46",
"Y  c #3D253C",
"T  c #41283D",
"R  c #482F3F",
"E  c #4E3440",
"W  c #553840",
"Q  c #553740",
"!  c #482F40",
"~  c #432A3F",
"^  c #41273F",
"/  c #362032",
"(  c #3A2335",
")  c #412A3C",
"_  c #472F3F",
"`  c #4E333F",
"'  c #432B3E",
"]  c #3E273C",
"[  c #3C253B",
"{  c #2A1620",
"}  c #2F1B28",
"|  c #40283D",
" . c #41293C",
".. c #40283C",
"X. c #3F273C",
"o. c #3E263C",
"O. c #472E3F",
"+. c #3E253C",
"@. c #41293D",
"#. c #462D3D",
"$. c #3C2436",
"%. c #43293D",
"&. c #4D323F",
"*. c #543741",
"=. c #533741",
"-. c #482E38",
";. c #331E28",
":. c #291620",
">. c #3D2536",
",. c #4B303D",
"<. c #553841",
"1. c #341E29",
"2. c #291621",
"3. c #321D28",
"4. c #432B38",
"5. c #4E3441",
"6. c #462E3D",
"7. c #3C2536",
"8. c #372033",
"9. c #2A1721",
"0. c #311C29",
"q. c #3E2737",
"w. c #4C323F",
"e. c #4D313D",
"r. c #4A2F38",
"t. c #482E36",
"y. c #492E37",
"u. c #3A2436",
"i. c #372133",
"p. c #392235",
"a. c #3D263A",
"s. c #3E2636",
"d. c #2F1B22",
"f. c #301B22",
"g. c #301B23",
"h. c #301C23",
"j. c #3A2336",
"k. c #382134",
"l. c #3C2539",
"z. c #3C2636",
"x. c #331E29",
"c. c #2E1B22",
"v. c #2D1A22",
"b. c #2C1921",
"n. c #29161F",
"m. c #25131B",
"M. c #392234",
"N. c #2A1722",
"B. c #301C28",
"V. c #3B2535",
"C. c #432C3C",
"Z. c #48313E",
"A. c #49313D",
"S. c #462F38",
"D. c #442E36",
"F. c #422C36",
"G. c #3D2834",
"H. c #34202C",
"J. c #3E2739",
"K. c #392335",
"L. c #231218",
"P. c #3D2833",
"I. c #49323E",
"U. c #4E3640",
"Y. c #503840",
"T. c #503841",
"R. c #4E3641",
"E. c #49323F",
"W. c #2C1922",
"Q. c #4D363F",
"!. c #48313D",
"~. c #422B3A",
"^. c #3B2436",
"/. c #372134",
"(. c #422C35",
"). c #4F3740",
"_. c #2E1A22",
"`. c #442D38",
"'. c #241219",
"]. c #2E1B23",
"[. c #432C36",
"{. c #4D3640",
"}. c #4D3540",
"|. c #4C353F",
" X c #3E2834",
".X c #47303E",
"XX c #46303E",
"oX c #462F3D",
"OX c #2D1922",
"+X c #241218",
"@X c #2A1720",
"#X c #35212C",
"$X c #3B2633",
"%X c #3A2533",
"&X c #2A171F",
"*X c #25131A",
"=X c #27141C",
"-X c #26141C",
";X c white",
/* pixels */
"    . . . . . . . X o o X O O X + @ @ # # # # @ @ + X . . .     ",
"  $ % & * * * * * = - - = ; ; : > , , < < < < , , > : * * % $   ",
". % 1 2 3 4 4 4 4 5 6 6 5 4 4 5 6 7 7 7 7 7 7 7 7 6 5 3 2 1 % . ",
". * 2 8 8 8 8 8 8 9 0 0 9 8 8 9 0 0 0 0 0 0 0 0 0 0 9 8 8 2 * . ",
". * 3 8 8 0 0 0 0 0 0 0 0 0 0 0 0 0 0 0 0 0 0 0 0 0 0 8 8 3 * . ",
". q w e r r r r r r r r r r r r r r r r r r r r r r r r e w q . ",
". t y u i p p p p p p p p p p p p p p p p p p p p p p i u y t . ",
"a s d f g g g g g g g g g g g g g g g g g g g g g g g g f d h j ",
"k l z x x c c c c c c c c c c c c c c c c c c c c c c x v z b n ",
"m M N B B V V V V V V V V V V V V V V V V V V V V V V C B Z A k ",
"m M S B B C C C C C C C C C C C C C C C C C C C C C C B B D F G ",
"H J K L B B B B B B B B B B B B B B B B B B B B B B B B L P I U ",
"Y T R E L W W Q Q Q Q Q Q Q Q Q Q Q Q Q Q Q Q Q Q W W L E ! ~ ^ ",
"/ ( ) _ K ` S S S S S S S S S S S S S S S S S S S S ` K _ ' ] [ ",
"{ } ( | M M M M M M M M M M M M M M M M M M M M M M M  ...X.H H ",
"{ } ( | M M M M M M M M M M M M M M M M M M M M M M M  ...X.o.H ",
"/ ( ) _ K ` S S S S S S S S S S S S S S S S S S S S ` K O.' X.Y ",
"+.@.R E V W W Q Q Q Q Q Q Q Q Q Q Q Q Q Q Q Q Q Q W W V E #.$./ ",
"Y %.&.V B B B B B B B B B B B B B B B B B B B B B B B *.=.-.;.:.",
"/ >.,.C B B Q <.<.<.<.<.<.<.<.<.<.<.<.<.<.<.<.<.<.Q B *.=.-.1.2.",
":.3.4.5.=.W <.<.<.<.<.<.<.<.<.<.<.<.<.<.<.<.<.<.<.<.W V E 6.7.8.",
"9.0.q.! w.e.r.t.t.t.t.t.t.t.y.y.t.t.t.t.t.t.t.t.t.r.e.K R ) u.8.",
"i.p.a.| J s.1.d.d.d.d.d.f.g.h.h.g.f.d.d.d.d.d.d.d.1.s.J T j.} 9.",
"k.p.l.X. .z.x.c.c.c.c.v.b.n.m.m.n.b.v.c.c.c.c.c.c.x.z.@.X.M.} 9.",
"N.B.V.C.Z.A.S.D.D.D.D.F.G.H.n.n.H.G.F.D.D.D.D.D.D.S.A.Z.C.J.K.i.",
"L.b.P.I.U.Y.T.T.T.T.T.R.E.G.W.W.G.E.R.T.T.T.T.T.T.T.Y.Q.!.~.^./.",
"L.c.(.U.).Y.T.T.T.T.T.T.R.F._._.F.R.T.T.T.T.T.T.T.T.Y.).U.`.x.N.",
"'.].[.{.}.|.|.|.|.|.|.}.{.F._._.F.{.}.|.|.|.|.|.|.|.|.}.{.F.c.L.",
"'.v. X.XXXoXoXoXoXoXoXXX.X XW.W. X.XXXoXoXoXoXoXoXoXoXXX.X XOX+X",
"'.@X#X$X$X%X%X%X%X%X%X$X$X#X&X&X#X$X$X%X%X%X%X%X%X%X%X$X$X#X@X'.",
"*X=X@XW.W.W.W.W.W.W.W.W.W.@X-X-X@XW.W.W.W.W.W.W.W.W.W.W.W.@X=X*X",
"*X*X'.'.'.'.'.'.'.'.'.'.'.'.*X*X'.'.'.'.'.'.'.'.'.'.'.'.'.'.*X*X"
};
